<?xml version="1.0" encoding="UTF-8"?><svg xmlns="http://www.w3.org/2000/svg" xmlns:xlink="http://www.w3.org/1999/xlink" viewBox="0 0 616.13 522.92"><defs><style>.cls-1{fill:url(#radial-gradient-10);}.cls-2{fill:url(#linear-gradient-15);}.cls-3{fill:url(#linear-gradient-13);}.cls-4{fill:url(#linear-gradient-43);}.cls-4,.cls-5,.cls-6,.cls-7,.cls-8,.cls-9,.cls-10,.cls-11,.cls-12,.cls-13,.cls-14,.cls-15,.cls-16,.cls-17,.cls-18,.cls-19,.cls-20,.cls-21,.cls-22,.cls-23,.cls-24,.cls-25,.cls-26,.cls-27,.cls-28,.cls-29,.cls-30,.cls-31,.cls-32,.cls-33,.cls-34{isolation:isolate;}.cls-4,.cls-12,.cls-14,.cls-25,.cls-29{opacity:.32;}.cls-5{fill:url(#radial-gradient-18);}.cls-5,.cls-16,.cls-19,.cls-28,.cls-30{opacity:.61;}.cls-35{fill:url(#linear-gradient-53);}.cls-6{fill:url(#linear-gradient-30);}.cls-6,.cls-8,.cls-11,.cls-31,.cls-32{opacity:.49;}.cls-36{mask:url(#mask-5);}.cls-37{stroke:url(#linear-gradient-22);}.cls-37,.cls-38,.cls-39,.cls-40,.cls-41,.cls-42,.cls-43,.cls-44,.cls-45,.cls-46,.cls-47{fill:none;}.cls-37,.cls-38,.cls-39,.cls-40,.cls-41,.cls-43,.cls-44,.cls-45,.cls-46,.cls-47{stroke-miterlimit:10;}.cls-37,.cls-38,.cls-40,.cls-44{stroke-width:.9px;}.cls-7{fill:url(#radial-gradient-4);}.cls-7,.cls-9,.cls-21,.cls-22,.cls-27{opacity:.78;}.cls-48{fill:url(#New_Gradient_Swatch_1-3);}.cls-8{fill:url(#linear-gradient-18);}.cls-38{stroke:url(#linear-gradient-34);}.cls-39{stroke:url(#linear-gradient-4);}.cls-39,.cls-41,.cls-43,.cls-45{stroke-width:.9px;}.cls-9{fill:url(#radial-gradient-19);}.cls-49{fill:url(#linear-gradient-60);}.cls-50{clip-path:url(#clippath-4);}.cls-51{fill:url(#Steel_Radial-7);}.cls-51,.cls-52,.cls-53,.cls-54,.cls-55,.cls-56,.cls-57,.cls-58,.cls-59{stroke:#000;stroke-width:.25px;}.cls-60{fill:url(#linear-gradient-2);}.cls-61{mask:url(#mask-1);}.cls-40{stroke:url(#linear-gradient-10);}.cls-62{fill:url(#linear-gradient-25);}.cls-10{fill:url(#linear-gradient-44);}.cls-10,.cls-13,.cls-15,.cls-17,.cls-18,.cls-20{opacity:.59;}.cls-63{fill:url(#linear-gradient-12);}.cls-11{fill:url(#linear-gradient-54);}.cls-12{fill:url(#linear-gradient-55);}.cls-64{fill:url(#linear-gradient-27);}.cls-41{stroke:url(#linear-gradient-16);}.cls-65{mask:url(#mask-6);}.cls-66{fill:#0cc4ef;filter:url(#drop-shadow-2);font-family:Arial-BoldMT, Arial;font-size:69.58px;font-weight:700;}.cls-67{fill:url(#linear-gradient-37);}.cls-52{fill:url(#Steel_Radial-6);}.cls-68{mask:url(#mask-7);}.cls-53{fill:url(#Steel_Radial-5);}.cls-13{fill:url(#linear-gradient-56);}.cls-14{fill:url(#linear-gradient-19);}.cls-69{mask:url(#mask);}.cls-70{fill:url(#linear-gradient-39);}.cls-71{fill:url(#radial-gradient-16);}.cls-15{fill:url(#linear-gradient-8);}.cls-72{fill:url(#linear-gradient-26);}.cls-54{fill:url(#Steel_Radial);}.cls-73{fill:rgba(174,245,255,.39);}.cls-74{fill:url(#radial-gradient-5);}.cls-55{fill:url(#Steel_Radial-3);}.cls-56{fill:url(#Steel_Radial-4);}.cls-16{fill:url(#radial-gradient-8);}.cls-75{fill:url(#radial-gradient);}.cls-76{mask:url(#mask-8);}.cls-17{fill:url(#linear-gradient-20);}.cls-77{mask:url(#mask-2);}.cls-57{fill:url(#Steel_Radial-2);}.cls-78{mask:url(#mask-9);}.cls-79{fill:url(#linear-gradient-49);}.cls-80{fill:url(#linear-gradient-3);}.cls-81{clip-path:url(#clippath-1);}.cls-82{fill:url(#radial-gradient-20);}.cls-83{filter:url(#drop-shadow-1);}.cls-84{fill:url(#linear-gradient-5);}.cls-43{stroke:url(#linear-gradient-40);}.cls-85{fill:url(#linear-gradient-38);}.cls-18{fill:url(#linear-gradient-32);}.cls-86{fill:url(#linear-gradient-24);}.cls-58{fill:url(#Steel_Radial-8);}.cls-19{fill:url(#radial-gradient-3);}.cls-87{fill:url(#radial-gradient-11);}.cls-88{fill:url(#linear-gradient-33);}.cls-89{fill:url(#linear-gradient-51);}.cls-90{fill:url(#linear-gradient-57);}.cls-44{stroke:url(#linear-gradient-46);}.cls-91{clip-path:url(#clippath-3);}.cls-92{fill:rgba(224,185,124,.76);}.cls-93{fill:url(#radial-gradient-2);}.cls-21{fill:url(#radial-gradient-24);}.cls-94{fill:url(#linear-gradient-14);}.cls-95{fill:url(#New_Gradient_Swatch_1-2);}.cls-22{fill:url(#radial-gradient-9);}.cls-96{fill:url(#radial-gradient-21);}.cls-97{fill:url(#linear-gradient-29);}.cls-45{stroke:url(#linear-gradient-28);}.cls-98{fill:url(#linear-gradient-17);}.cls-99{fill:url(#linear-gradient-50);}.cls-100{fill:url(#radial-gradient-25);}.cls-23{fill:url(#linear-gradient-47);}.cls-23,.cls-24,.cls-26,.cls-33,.cls-34{opacity:.68;}.cls-101{fill:url(#linear-gradient-9);}.cls-102{fill:url(#radial-gradient-22);}.cls-24{fill:url(#linear-gradient-35);}.cls-46{stroke:url(#linear-gradient-52);stroke-width:2.86px;}.cls-25{fill:url(#linear-gradient-7);}.cls-103{fill:url(#radial-gradient-12);}.cls-26{fill:url(#linear-gradient-11);}.cls-47{stroke:url(#linear-gradient-58);stroke-width:2.86px;}.cls-104{fill:url(#radial-gradient-15);}.cls-27{fill:url(#radial-gradient-14);}.cls-105{fill:url(#linear-gradient-36);}.cls-106{fill:url(#linear-gradient-21);}.cls-107{fill:url(#linear-gradient-45);}.cls-28{fill:url(#radial-gradient-23);}.cls-108{clip-path:url(#clippath-2);}.cls-109{fill:url(#radial-gradient-6);}.cls-110{mask:url(#mask-4);}.cls-29{fill:url(#linear-gradient-31);}.cls-30{fill:url(#radial-gradient-13);}.cls-111{fill:url(#linear-gradient-48);}.cls-112{fill:rgba(224,185,124,.39);}.cls-31{fill:url(#linear-gradient-42);}.cls-113{fill:url(#linear-gradient-41);}.cls-114{fill:url(#radial-gradient-7);}.cls-115{fill:url(#radial-gradient-17);}.cls-32{fill:url(#linear-gradient-6);}.cls-59{fill:url(#Steel_Radial-9);}.cls-116{fill:url(#linear-gradient);}.cls-33{fill:url(#linear-gradient-23);}.cls-117{fill:url(#New_Gradient_Swatch_1);}.cls-118{clip-path:url(#clippath);}.cls-119{fill:rgba(174,245,255,.76);}.cls-120{mask:url(#mask-3);}.cls-34{fill:url(#linear-gradient-59);}</style><radialGradient id="Steel_Radial" cx="308.06" cy="260.27" fx="308.06" fy="260.27" r="229.45" gradientUnits="userSpaceOnUse"><stop offset="0" stop-color="#e5e2df"/><stop offset="0" stop-color="#f1efed"/><stop offset="0" stop-color="#fff"/><stop offset=".13" stop-color="#f0f0f0"/><stop offset=".37" stop-color="#c9cacb"/><stop offset=".52" stop-color="#adaeb0"/><stop offset=".6" stop-color="#a3a5a7"/><stop offset=".74" stop-color="#898d8f"/><stop offset=".91" stop-color="#5e6669"/><stop offset="1" stop-color="#465053"/></radialGradient><radialGradient id="Steel_Radial-2" cx="330.21" cy="158.53" fx="330.21" fy="158.53" r="163.76" xlink:href="#Steel_Radial"/><radialGradient id="Steel_Radial-3" cx="111.42" cy="384.79" fx="111.42" fy="384.79" r="77.23" xlink:href="#Steel_Radial"/><radialGradient id="Steel_Radial-4" cx="309.1" cy="201.33" fx="309.1" fy="201.33" r="195.23" xlink:href="#Steel_Radial"/><radialGradient id="Steel_Radial-5" cx="528.66" cy="427.32" fx="528.66" fy="427.32" r="42.85" xlink:href="#Steel_Radial"/><radialGradient id="radial-gradient" cx="6616.91" cy="-6740.4" fx="6616.91" fy="-6740.4" r="209.2" gradientTransform="translate(2020.76 1997.61) rotate(-180) scale(.23 -.23)" gradientUnits="userSpaceOnUse"><stop offset="0" stop-color="#956d00"/><stop offset=".95" stop-color="#9d7812"/><stop offset="1" stop-color="#966f03"/></radialGradient><radialGradient id="radial-gradient-2" cx="7147.07" cy="-7298.13" fx="7147.07" fy="-7298.13" r="209.2" gradientTransform="translate(2043.45 2023.14) rotate(-180) scale(.21 -.21)" gradientUnits="userSpaceOnUse"><stop offset="0" stop-color="#fcb73f"/><stop offset=".23" stop-color="#fba712"/><stop offset=".41" stop-color="#fab10b"/><stop offset=".6" stop-color="#b19342"/><stop offset=".75" stop-color="#a27f1f"/><stop offset="1" stop-color="#9c760f"/></radialGradient><radialGradient id="radial-gradient-3" cx="5854.26" cy="-8717.77" fx="5854.26" fy="-8717.77" r="191.83" gradientTransform="translate(1962.51 2063.58) rotate(173.05) scale(.21 -.2)" gradientUnits="userSpaceOnUse"><stop offset="0" stop-color="#a7862b" stop-opacity=".82"/><stop offset="1" stop-color="#9e7914" stop-opacity="0"/></radialGradient><linearGradient id="linear-gradient" x1="15225.88" y1="1494.35" x2="15456.1" y2="1477.88" gradientTransform="translate(2489.46 2028.37) rotate(-135.74) scale(.16 -.18)" gradientUnits="userSpaceOnUse"><stop offset="0" stop-color="#fab415" stop-opacity=".07"/><stop offset="1" stop-color="#fab415" stop-opacity="0"/></linearGradient><mask id="mask" x="336.34" y="427.67" width="418.39" height="734.94" maskUnits="userSpaceOnUse"/><radialGradient id="radial-gradient-4" cx="7111.03" cy="-7285.71" fx="7111.03" fy="-7285.71" r="209.2" gradientTransform="translate(2043.45 2029.48) rotate(-180) scale(.21 -.21)" gradientUnits="userSpaceOnUse"><stop offset="0" stop-color="#fff" stop-opacity="0"/><stop offset=".95" stop-color="#fff" stop-opacity="0"/><stop offset="1" stop-color="#fff" stop-opacity=".23"/></radialGradient><linearGradient id="linear-gradient-2" x1="7115.17" y1="-7207.53" x2="7183.25" y2="-7134.32" gradientTransform="translate(2047.68 2023.03) rotate(-180) scale(.21 -.21)" gradientUnits="userSpaceOnUse"><stop offset="0" stop-color="#fbbf37"/><stop offset="1" stop-color="#fbbf37" stop-opacity="0"/></linearGradient><linearGradient id="linear-gradient-3" x1="8077.84" y1="-5583.34" x2="8151.25" y2="-5462.97" gradientTransform="translate(2372.42 1746.86) rotate(-180) scale(.23 -.23)" gradientUnits="userSpaceOnUse"><stop offset="0" stop-color="#e0b97c" stop-opacity=".78"/><stop offset="1" stop-color="#e0b97c" stop-opacity="0"/></linearGradient><linearGradient id="linear-gradient-4" x1="10217.48" y1="6551.69" x2="10201.64" y2="6680.04" gradientTransform="translate(2832.75 2039.37) rotate(-113.28) scale(.23 -.23)" gradientUnits="userSpaceOnUse"><stop offset="0" stop-color="#c88116" stop-opacity=".76"/><stop offset=".33" stop-color="#ddb16e"/><stop offset=".7" stop-color="#fdd286" stop-opacity=".64"/><stop offset="1" stop-color="#fcba46" stop-opacity=".44"/></linearGradient><linearGradient id="linear-gradient-5" x1="6476.43" y1="-6606.47" x2="6529.18" y2="-6648.11" gradientTransform="translate(2028.07 1993.56) rotate(-180) scale(.23 -.23)" gradientUnits="userSpaceOnUse"><stop offset="0" stop-color="#fff"/><stop offset="1" stop-color="#fff" stop-opacity="0"/></linearGradient><linearGradient id="linear-gradient-6" x1="10927.91" y1="-2105.94" x2="10766.24" y2="-2076.67" gradientTransform="translate(2370.89 1939.68) rotate(-151.6) scale(.21 -.21)" gradientUnits="userSpaceOnUse"><stop offset="0" stop-color="#fbbf37"/><stop offset="1" stop-color="#fbbf37" stop-opacity="0"/></linearGradient><linearGradient id="linear-gradient-7" x1="7086.79" y1="-6478.62" x2="7004.07" y2="-6472.97" gradientTransform="translate(2051.28 1969.55) rotate(-180) scale(.22 -.23)" gradientUnits="userSpaceOnUse"><stop offset="0" stop-color="#d3c294"/><stop offset="1" stop-color="#d3c294" stop-opacity="0"/></linearGradient><linearGradient id="linear-gradient-8" x1="6545.06" y1="-2972.77" x2="6551.18" y2="-2898.3" gradientTransform="translate(2020.76 1644.12) rotate(-180) scale(.23 -.4)" gradientUnits="userSpaceOnUse"><stop offset="0" stop-color="#a27f1f"/><stop offset="1" stop-color="#a27f1f" stop-opacity=".55"/></linearGradient><linearGradient id="linear-gradient-9" x1="6462.43" y1="-6836.13" x2="6521.37" y2="-6794.91" gradientTransform="translate(2025.74 2008.02) rotate(-180) scale(.23 -.23)" gradientUnits="userSpaceOnUse"><stop offset="0" stop-color="#fcbf54"/><stop offset="1" stop-color="#fef0d1" stop-opacity=".17"/></linearGradient><radialGradient id="radial-gradient-5" cx="126.89" cy="834.85" fx="126.89" fy="834.85" r="42.67" gradientTransform="translate(620.27 -482.58) rotate(178.44) scale(.99 -1.14)" gradientUnits="userSpaceOnUse"><stop offset="0" stop-color="#fff" stop-opacity="0"/><stop offset=".9" stop-color="#fdd794" stop-opacity=".22"/><stop offset=".96" stop-color="#fdd389" stop-opacity=".57"/><stop offset="1" stop-color="#fff" stop-opacity=".9"/></radialGradient><linearGradient id="linear-gradient-10" x1="6478.94" y1="-6804.94" x2="6463.1" y2="-6676.59" gradientTransform="translate(2020.76 1989.92) rotate(-180) scale(.23 -.23)" gradientUnits="userSpaceOnUse"><stop offset="0" stop-color="#c88116" stop-opacity=".76"/><stop offset=".33" stop-color="#ddb16e"/><stop offset=".7" stop-color="#fff" stop-opacity=".5"/><stop offset="1" stop-color="#fff" stop-opacity="0"/></linearGradient><clipPath id="clippath"><path class="cls-42" d="M547.13,452.03l9.47.62c8.81,12.21,11.1,30.16-6.9,38.73l-5.56-2.8c3.79-11.68,3.46-20.34,2.99-36.55h0Z"/></clipPath><mask id="mask-1" x="360.43" y="447.64" width="199.46" height="626.29" maskUnits="userSpaceOnUse"/><linearGradient id="linear-gradient-11" x1="-1901.93" y1="-4030.38" x2="-1887.54" y2="-3982.94" gradientTransform="translate(1389.11 1829.14) rotate(140.27) scale(.29 -.4) skewX(-15.18)" gradientUnits="userSpaceOnUse"><stop offset="0" stop-color="#7c7204"/><stop offset="1" stop-color="#7c7204" stop-opacity="0"/></linearGradient><linearGradient id="linear-gradient-12" x1="6482.54" y1="-6859.74" x2="6549.2" y2="-6718.11" gradientTransform="translate(2025.74 2008.02) rotate(-180) scale(.23 -.23)" gradientUnits="userSpaceOnUse"><stop offset="0" stop-color="#fcbf54" stop-opacity="0"/><stop offset="1" stop-color="#fef6e2" stop-opacity=".18"/></linearGradient><radialGradient id="radial-gradient-6" cx="8526.14" cy="-6727.14" fx="8526.14" fy="-6727.14" r="209.2" xlink:href="#radial-gradient"/><radialGradient id="radial-gradient-7" cx="9168.24" cy="-7284.09" fx="9168.24" fy="-7284.09" xlink:href="#radial-gradient-2"/><radialGradient id="radial-gradient-8" cx="7864.29" cy="-8961.5" fx="7864.29" fy="-8961.5" r="191.83" xlink:href="#radial-gradient-3"/><linearGradient id="linear-gradient-13" x1="17120.41" y1="3218.18" x2="17350.63" y2="3201.71" xlink:href="#linear-gradient"/><mask id="mask-2" x="-95.62" y="430.67" width="418.39" height="734.94" maskUnits="userSpaceOnUse"/><radialGradient id="radial-gradient-9" cx="9132.2" cy="-7271.67" fx="9132.2" fy="-7271.67" xlink:href="#radial-gradient-4"/><linearGradient id="linear-gradient-14" x1="9135.58" y1="-7193.5" x2="9203.66" y2="-7120.29" xlink:href="#linear-gradient-2"/><linearGradient id="linear-gradient-15" x1="9987.07" y1="-5570.08" x2="10060.48" y2="-5449.71" xlink:href="#linear-gradient-3"/><linearGradient id="linear-gradient-16" x1="10959.91" y1="8310.71" x2="10944.06" y2="8439.06" xlink:href="#linear-gradient-4"/><linearGradient id="linear-gradient-17" x1="8385.66" y1="-6593.21" x2="8438.41" y2="-6634.86" xlink:href="#linear-gradient-5"/><linearGradient id="linear-gradient-18" x1="12698.46" y1="-1132.58" x2="12536.78" y2="-1103.31" xlink:href="#linear-gradient-6"/><linearGradient id="linear-gradient-19" x1="9045.9" y1="-6465.67" x2="8963.17" y2="-6460.01" xlink:href="#linear-gradient-7"/><linearGradient id="linear-gradient-20" x1="8454.29" y1="-2965.34" x2="8460.41" y2="-2890.86" xlink:href="#linear-gradient-8"/><linearGradient id="linear-gradient-21" x1="8371.66" y1="-6822.88" x2="8430.6" y2="-6781.65" xlink:href="#linear-gradient-9"/><radialGradient id="radial-gradient-10" cx="562.43" cy="827.14" fx="562.43" fy="827.14" xlink:href="#radial-gradient-5"/><linearGradient id="linear-gradient-22" x1="8388.17" y1="-6791.68" x2="8372.33" y2="-6663.33" xlink:href="#linear-gradient-10"/><clipPath id="clippath-1"><path class="cls-42" d="M115.17,455.03l9.47.62c8.81,12.21,11.1,30.16-6.9,38.73l-5.56-2.8c3.79-11.68,3.46-20.34,2.99-36.55h0Z"/></clipPath><mask id="mask-3" x="-71.54" y="450.64" width="199.46" height="626.29" maskUnits="userSpaceOnUse"/><linearGradient id="linear-gradient-23" x1="-917.12" y1="-4717.82" x2="-902.73" y2="-4670.38" xlink:href="#linear-gradient-11"/><linearGradient id="linear-gradient-24" x1="8391.77" y1="-6846.48" x2="8458.43" y2="-6704.85" xlink:href="#linear-gradient-12"/><radialGradient id="radial-gradient-11" cx="6065.01" cy="526.02" fx="6065.01" fy="526.02" r="209.2" gradientTransform="translate(-1264.49 167.34) scale(.23 -.23)" xlink:href="#radial-gradient"/><radialGradient id="radial-gradient-12" cx="6562.82" cy="394.3" fx="6562.82" fy="394.3" r="209.2" gradientTransform="translate(-1287.18 141.81) scale(.21 -.21)" xlink:href="#radial-gradient-2"/><radialGradient id="radial-gradient-13" cx="6206.02" cy="-579.22" fx="6206.02" fy="-579.22" r="191.83" gradientTransform="translate(-1206.25 101.37) rotate(-6.95) scale(.21 -.2)" xlink:href="#radial-gradient-3"/><linearGradient id="linear-gradient-25" x1="7601.35" y1="7684.84" x2="7831.57" y2="7668.37" gradientTransform="translate(-1733.2 136.58) rotate(44.26) scale(.16 -.18)" xlink:href="#linear-gradient"/><mask id="mask-4" x="-123.33" y="-641.68" width="418.39" height="734.94" maskUnits="userSpaceOnUse"/><radialGradient id="radial-gradient-14" cx="6526.77" cy="406.72" fx="6526.77" fy="406.72" gradientTransform="translate(-1287.18 135.47) scale(.21 -.21)" xlink:href="#radial-gradient-4"/><linearGradient id="linear-gradient-26" x1="6531.13" y1="482.02" x2="6599.21" y2="555.23" gradientTransform="translate(-1291.41 141.92) scale(.21 -.21)" xlink:href="#linear-gradient-2"/><linearGradient id="linear-gradient-27" x1="7525.94" y1="1683.07" x2="7599.34" y2="1803.44" gradientTransform="translate(-1616.15 418.09) scale(.23 -.23)" xlink:href="#linear-gradient-3"/><linearGradient id="linear-gradient-28" x1="3324.58" y1="8916.71" x2="3308.74" y2="9045.06" gradientTransform="translate(-2076.48 125.58) rotate(66.72) scale(.23 -.23)" xlink:href="#linear-gradient-4"/><linearGradient id="linear-gradient-29" x1="5924.53" y1="659.94" x2="5977.28" y2="618.3" gradientTransform="translate(-1271.8 171.39) scale(.23 -.23)" xlink:href="#linear-gradient-5"/><linearGradient id="linear-gradient-30" x1="6756.6" y1="4380.24" x2="6594.93" y2="4409.5" gradientTransform="translate(-1614.63 225.27) rotate(28.4) scale(.21 -.21)" xlink:href="#linear-gradient-6"/><linearGradient id="linear-gradient-31" x1="6520.48" y1="620.85" x2="6437.75" y2="626.51" gradientTransform="translate(-1295.01 195.4) scale(.22 -.23)" xlink:href="#linear-gradient-7"/><linearGradient id="linear-gradient-32" x1="5993.16" y1="1103.56" x2="5999.28" y2="1178.03" gradientTransform="translate(-1264.49 520.83) scale(.23 -.4)" xlink:href="#linear-gradient-8"/><linearGradient id="linear-gradient-33" x1="5910.53" y1="430.28" x2="5969.47" y2="471.51" gradientTransform="translate(-1269.47 156.93) scale(.23 -.23)" xlink:href="#linear-gradient-9"/><radialGradient id="radial-gradient-15" cx="46.2" cy="2282.97" fx="46.2" fy="2282.97" r="42.67" gradientTransform="translate(135.99 2647.53) rotate(-1.56) scale(.99 -1.14)" xlink:href="#radial-gradient-5"/><linearGradient id="linear-gradient-34" x1="5927.04" y1="461.47" x2="5911.2" y2="589.82" gradientTransform="translate(-1264.49 175.03) scale(.23 -.23)" xlink:href="#linear-gradient-10"/><clipPath id="clippath-2"><path class="cls-42" d="M84.27,68.9l-9.47-.62c-8.81-12.21-11.1-30.16,6.9-38.73l5.56,2.8c-3.79,11.68-3.46,20.34-2.99,36.55h0Z"/></clipPath><mask id="mask-5" x="71.51" y="-553" width="199.46" height="626.29" maskUnits="userSpaceOnUse"/><linearGradient id="linear-gradient-35" x1="2360.35" y1="-655.19" x2="2374.74" y2="-607.75" gradientTransform="translate(-632.84 335.81) rotate(-39.73) scale(.29 -.4) skewX(-15.18)" xlink:href="#linear-gradient-11"/><linearGradient id="linear-gradient-36" x1="5930.64" y1="406.67" x2="5997.3" y2="548.31" gradientTransform="translate(-1269.47 156.93) scale(.23 -.23)" xlink:href="#linear-gradient-12"/><radialGradient id="radial-gradient-16" cx="7846.06" cy="530.44" fx="7846.06" fy="530.44" r="209.2" gradientTransform="translate(-1264.49 167.34) scale(.23 -.23)" xlink:href="#radial-gradient"/><radialGradient id="radial-gradient-17" cx="8448.29" cy="398.98" fx="8448.29" fy="398.98" r="209.2" gradientTransform="translate(-1287.18 141.81) scale(.21 -.21)" xlink:href="#radial-gradient-2"/><radialGradient id="radial-gradient-18" cx="8080.09" cy="-815.41" fx="8080.09" fy="-815.41" r="191.83" gradientTransform="translate(-1206.25 101.37) rotate(-6.95) scale(.21 -.2)" xlink:href="#radial-gradient-3"/><linearGradient id="linear-gradient-37" x1="9376.43" y1="9285.63" x2="9606.65" y2="9269.15" gradientTransform="translate(-1733.2 136.58) rotate(44.26) scale(.16 -.18)" xlink:href="#linear-gradient"/><mask id="mask-6" x="279.63" y="-642.68" width="418.39" height="734.94" maskUnits="userSpaceOnUse"/><radialGradient id="radial-gradient-19" cx="8412.25" cy="411.4" fx="8412.25" fy="411.4" r="209.2" gradientTransform="translate(-1287.18 135.47) scale(.21 -.21)" xlink:href="#radial-gradient-4"/><linearGradient id="linear-gradient-38" x1="8415.9" y1="486.7" x2="8483.98" y2="559.91" gradientTransform="translate(-1291.41 141.92) scale(.21 -.21)" xlink:href="#linear-gradient-2"/><linearGradient id="linear-gradient-39" x1="9306.99" y1="1687.49" x2="9380.4" y2="1807.86" gradientTransform="translate(-1616.15 418.09) scale(.23 -.23)" xlink:href="#linear-gradient-3"/><linearGradient id="linear-gradient-40" x1="4024.47" y1="10554.5" x2="4008.62" y2="10682.85" gradientTransform="translate(-2076.48 125.58) rotate(66.72) scale(.23 -.23)" xlink:href="#linear-gradient-4"/><linearGradient id="linear-gradient-41" x1="7705.59" y1="664.36" x2="7758.33" y2="622.72" gradientTransform="translate(-1271.8 171.39) scale(.23 -.23)" xlink:href="#linear-gradient-5"/><linearGradient id="linear-gradient-42" x1="8412.28" y1="5280.85" x2="8250.6" y2="5310.11" gradientTransform="translate(-1614.63 225.27) rotate(28.4) scale(.21 -.21)" xlink:href="#linear-gradient-6"/><linearGradient id="linear-gradient-43" x1="8348.06" y1="625.17" x2="8265.33" y2="630.83" gradientTransform="translate(-1295.01 195.4) scale(.22 -.23)" xlink:href="#linear-gradient-7"/><linearGradient id="linear-gradient-44" x1="7774.21" y1="1106.04" x2="7780.33" y2="1180.51" gradientTransform="translate(-1264.49 520.83) scale(.23 -.4)" xlink:href="#linear-gradient-8"/><linearGradient id="linear-gradient-45" x1="7691.58" y1="434.7" x2="7750.52" y2="475.93" gradientTransform="translate(-1269.47 156.93) scale(.23 -.23)" xlink:href="#linear-gradient-9"/><radialGradient id="radial-gradient-20" cx="452.45" cy="2274.19" fx="452.45" fy="2274.19" r="42.67" gradientTransform="translate(135.99 2647.53) rotate(-1.56) scale(.99 -1.14)" xlink:href="#radial-gradient-5"/><linearGradient id="linear-gradient-46" x1="7708.09" y1="465.89" x2="7692.25" y2="594.24" gradientTransform="translate(-1264.49 175.03) scale(.23 -.23)" xlink:href="#linear-gradient-10"/><clipPath id="clippath-3"><path class="cls-42" d="M487.23,67.9l-9.47-.62c-8.81-12.21-11.1-30.16,6.9-38.73l5.56,2.8c-3.79,11.68-3.46,20.34-2.99,36.55h0Z"/></clipPath><mask id="mask-7" x="474.47" y="-554" width="199.46" height="626.29" maskUnits="userSpaceOnUse"/><linearGradient id="linear-gradient-47" x1="3274.08" y1="-1299.95" x2="3288.46" y2="-1252.51" gradientTransform="translate(-632.84 335.81) rotate(-39.73) scale(.29 -.4) skewX(-15.18)" xlink:href="#linear-gradient-11"/><linearGradient id="linear-gradient-48" x1="7711.69" y1="411.09" x2="7778.36" y2="552.73" gradientTransform="translate(-1269.47 156.93) scale(.23 -.23)" xlink:href="#linear-gradient-12"/><radialGradient id="radial-gradient-21" cx="6940.07" cy="-371.8" fx="6940.07" fy="-371.8" r="662.89" gradientTransform="translate(-1264.49 167.34) scale(.23 -.23)" gradientUnits="userSpaceOnUse"><stop offset="0" stop-color="#010822"/><stop offset=".95" stop-color="#07184f"/><stop offset="1" stop-color="#040b25"/></radialGradient><radialGradient id="radial-gradient-22" cx="7567.35" cy="-649.57" fx="7567.35" fy="-649.57" r="662.89" gradientTransform="translate(-1287.18 141.81) scale(.21 -.21)" gradientUnits="userSpaceOnUse"><stop offset="0" stop-color="#31d3ff"/><stop offset=".23" stop-color="#0bc4ff"/><stop offset=".41" stop-color="#118cd0"/><stop offset=".6" stop-color="#195299"/><stop offset=".75" stop-color="#0e2767"/><stop offset="1" stop-color="#07174a"/></radialGradient><radialGradient id="radial-gradient-23" cx="7156.44" cy="-1809.49" fx="7156.44" fy="-1809.49" r="607.87" gradientTransform="translate(-1206.25 101.37) rotate(-6.95) scale(.21 -.2)" gradientUnits="userSpaceOnUse"><stop offset="0" stop-color="#10319a" stop-opacity=".82"/><stop offset="1" stop-color="#091b52" stop-opacity="0"/></radialGradient><linearGradient id="linear-gradient-49" x1="9028.64" y1="7711.55" x2="9758.14" y2="7659.35" gradientTransform="translate(-1733.2 136.58) rotate(44.26) scale(.16 -.18)" gradientUnits="userSpaceOnUse"><stop offset="0" stop-color="#0096fe" stop-opacity=".07"/><stop offset="1" stop-color="#0096fe" stop-opacity="0"/></linearGradient><mask id="mask-8" x="-426.45" y="-1935.03" width="1325.79" height="2328.85" maskUnits="userSpaceOnUse"/><radialGradient id="radial-gradient-24" cx="7453.14" cy="-545.93" fx="7453.14" fy="-545.93" r="662.89" gradientTransform="translate(-1287.18 135.47) scale(.21 -.21)" xlink:href="#radial-gradient-4"/><linearGradient id="linear-gradient-50" x1="7428.97" y1="-372.02" x2="7644.71" y2="-140.01" gradientTransform="translate(-1291.41 141.92) scale(.21 -.21)" gradientUnits="userSpaceOnUse"><stop offset="0" stop-color="#17adff"/><stop offset="1" stop-color="#17adff" stop-opacity="0"/></linearGradient><linearGradient id="linear-gradient-51" x1="8198.5" y1="890.99" x2="8431.1" y2="1272.42" gradientTransform="translate(-1616.15 418.09) scale(.23 -.23)" gradientUnits="userSpaceOnUse"><stop offset="0" stop-color="#aef5ff" stop-opacity=".78"/><stop offset="1" stop-color="#aef5ff" stop-opacity="0"/></linearGradient><linearGradient id="linear-gradient-52" x1="4110.42" y1="9178.94" x2="4060.22" y2="9585.65" gradientTransform="translate(-2076.48 125.58) rotate(66.72) scale(.23 -.23)" gradientUnits="userSpaceOnUse"><stop offset="0" stop-color="#68f0ff" stop-opacity=".76"/><stop offset=".33" stop-color="#a6f3ff"/><stop offset=".7" stop-color="#7ee4ff" stop-opacity=".64"/><stop offset="1" stop-color="#3fd1ff" stop-opacity=".44"/></linearGradient><linearGradient id="linear-gradient-53" x1="6424.88" y1="13.75" x2="6592.02" y2="-118.2" gradientTransform="translate(-1271.8 171.39) scale(.23 -.23)" xlink:href="#linear-gradient-5"/><linearGradient id="linear-gradient-54" x1="8161.98" y1="3595.55" x2="7649.67" y2="3688.28" gradientTransform="translate(-1614.63 225.27) rotate(28.4) scale(.21 -.21)" xlink:href="#linear-gradient-50"/><linearGradient id="linear-gradient-55" x1="7762.37" y1="-287.22" x2="7500.22" y2="-269.3" gradientTransform="translate(-1295.01 195.4) scale(.22 -.23)" gradientUnits="userSpaceOnUse"><stop offset="0" stop-color="#6b9dff"/><stop offset="1" stop-color="#6b9dff" stop-opacity="0"/></linearGradient><linearGradient id="linear-gradient-56" x1="6712.39" y1="452.43" x2="6731.78" y2="688.42" gradientTransform="translate(-1264.49 520.83) scale(.23 -.4)" gradientUnits="userSpaceOnUse"><stop offset="0" stop-color="#002b6e"/><stop offset="1" stop-color="#002c71" stop-opacity=".55"/></linearGradient><linearGradient id="linear-gradient-57" x1="6402.85" y1="-575.41" x2="6589.61" y2="-444.77" gradientTransform="translate(-1269.47 156.93) scale(.23 -.23)" gradientUnits="userSpaceOnUse"><stop offset="0" stop-color="#47d8ff"/><stop offset="1" stop-color="#caecff" stop-opacity=".17"/></linearGradient><radialGradient id="radial-gradient-25" cx="247.27" cy="2094.36" fx="247.27" fy="2094.36" r="135.2" gradientTransform="translate(135.99 2647.53) rotate(-1.56) scale(.99 -1.14)" gradientUnits="userSpaceOnUse"><stop offset="0" stop-color="#fff" stop-opacity="0"/><stop offset=".9" stop-color="#8ce7ff" stop-opacity=".22"/><stop offset=".96" stop-color="#80e4ff" stop-opacity=".57"/><stop offset="1" stop-color="#fff" stop-opacity=".9"/></radialGradient><linearGradient id="linear-gradient-58" x1="6502.87" y1="-650.06" x2="6452.67" y2="-243.35" gradientTransform="translate(-1264.49 175.03) scale(.23 -.23)" gradientUnits="userSpaceOnUse"><stop offset="0" stop-color="#68f0ff" stop-opacity=".76"/><stop offset=".33" stop-color="#a6f3ff"/><stop offset=".7" stop-color="#fff" stop-opacity=".5"/><stop offset="1" stop-color="#fff" stop-opacity="0"/></linearGradient><clipPath id="clippath-4"><path class="cls-42" d="M231.4,316.63l-30.02-1.96c-27.91-38.69-35.18-95.56,21.87-122.74l17.62,8.87c-12,37.01-10.97,64.44-9.47,115.83h0Z"/></clipPath><mask id="mask-9" x="190.96" y="-1654.01" width="632.05" height="1984.56" maskUnits="userSpaceOnUse"/><linearGradient id="linear-gradient-59" x1="2011.19" y1="-1412.63" x2="2056.77" y2="-1262.31" gradientTransform="translate(-632.84 335.81) rotate(-39.73) scale(.29 -.4) skewX(-15.18)" gradientUnits="userSpaceOnUse"><stop offset="0" stop-color="navy"/><stop offset="1" stop-color="navy" stop-opacity="0"/></linearGradient><linearGradient id="linear-gradient-60" x1="6466.56" y1="-650.22" x2="6677.81" y2="-201.41" gradientTransform="translate(-1269.47 156.93) scale(.23 -.23)" gradientUnits="userSpaceOnUse"><stop offset="0" stop-color="#47d8ff" stop-opacity="0"/><stop offset="1" stop-color="#ddf3ff" stop-opacity=".18"/></linearGradient><radialGradient id="Steel_Radial-6" cx="309.52" cy="377.6" fx="309.52" fy="377.6" r="165.79" xlink:href="#Steel_Radial"/><radialGradient id="Steel_Radial-7" cx="503.91" cy="150" fx="503.91" fy="150" r="79.06" xlink:href="#Steel_Radial"/><radialGradient id="Steel_Radial-8" cx="284.82" cy="375.8" fx="284.82" fy="375.8" r="163.79" xlink:href="#Steel_Radial"/><radialGradient id="Steel_Radial-9" cx="300.05" cy="274.57" fx="300.05" fy="274.57" r="227.17" xlink:href="#Steel_Radial"/><filter id="drop-shadow-1" x="181.33" y="213.11" width="239" height="89" filterUnits="userSpaceOnUse"><feOffset dx="7.67" dy="7.67"/><feGaussianBlur result="blur" stdDeviation="5.48"/><feFlood flood-color="#000" flood-opacity=".75"/><feComposite in2="blur" operator="in"/><feComposite in="SourceGraphic"/></filter><linearGradient id="New_Gradient_Swatch_1" x1="190.32" y1="249.77" x2="245.22" y2="249.77" gradientUnits="userSpaceOnUse"><stop offset="0" stop-color="#c96a12"/><stop offset=".16" stop-color="#cd7a22"/><stop offset=".47" stop-color="#d9a54b"/><stop offset=".69" stop-color="#e2c76c"/></linearGradient><linearGradient id="New_Gradient_Swatch_1-2" x1="249.67" x2="313.49" xlink:href="#New_Gradient_Swatch_1"/><linearGradient id="New_Gradient_Swatch_1-3" x1="316.18" x2="396.06" xlink:href="#New_Gradient_Swatch_1"/><filter id="drop-shadow-2" filterUnits="userSpaceOnUse"><feOffset dx="7.82" dy="7.82"/><feGaussianBlur result="blur-2" stdDeviation="5.59"/><feFlood flood-color="#000" flood-opacity=".75"/><feComposite in2="blur-2" operator="in"/><feComposite in="SourceGraphic"/></filter></defs><g id="Layer_1"><path class="cls-54" d="M76.54,362.58C27.26,340.35.12,311.36.12,280.94c0-33.81,32.71-65.13,92.09-88.2,57.74-22.43,134.4-34.78,215.85-34.78s158.11,12.35,215.85,34.78c59.39,23.07,92.09,54.39,92.09,88.2,0,15.48-6.8,30.47-20.22,44.55-12.47,13.09-30.4,25.12-53.29,35.75l-4.63-9.98c43.3-20.11,67.15-45.09,67.15-70.33,0-28.53-31.01-56.94-85.07-77.94-56.5-21.95-131.75-34.04-211.87-34.04s-155.36,12.09-211.87,34.04c-54.07,21-85.07,49.41-85.07,77.94,0,25.84,24.84,51.27,69.94,71.61l-4.52,10.03Z"/><path class="cls-57" d="M147.13,287.7l-9.14-6.12c22.92-34.2,50.43-67.93,81.78-100.25,56.7-58.47,118.93-104.9,175.23-130.74,57.9-26.58,103.15-28.25,127.42-4.71l-7.66,7.9c-20.48-19.86-62.46-17.38-115.18,6.81-55.09,25.28-116.15,70.89-171.92,128.4-30.89,31.85-57.98,65.06-80.54,98.72Z"/><path class="cls-55" d="M93.68,488.01c-17.82-17.28-22.51-46.53-13.56-84.58,8.41-35.77,28.42-77.91,57.87-121.85l9.14,6.12c-58.43,87.19-76.41,162.72-45.79,192.41l-7.66,7.9Z"/><path class="cls-56" d="M515.79,372.15c-22.57-57.04-69.18-124-127.87-183.71-56.17-57.14-117.53-102.32-172.8-127.23-52.88-23.83-94.88-26.03-115.22-6.03l-7.71-7.84c24.11-23.7,69.37-22.33,127.45,3.84,56.47,25.45,119.02,71.46,176.12,129.54,59.69,60.72,107.17,129.01,130.26,187.37l-10.23,4.05Z"/><path class="cls-53" d="M523.93,486.54l-7.71-7.84c19.37-19.04,19.21-56.88-.44-106.55l10.23-4.05c21.38,54.04,20.64,96.1-2.08,118.44Z"/><path class="cls-75" d="M476.35,472.59c0-26.14,21.19-47.33,47.33-47.33s47.33,21.19,47.33,47.33-21.19,47.33-47.33,47.33-47.33-21.19-47.33-47.33Z"/><path class="cls-93" d="M478.97,471.37c0-24.69,20.02-44.71,44.71-44.71s44.71,20.02,44.71,44.71-20.02,44.71-44.71,44.71-44.71-20.02-44.71-44.71Z"/><path class="cls-19" d="M532.26,447.62c-11.58,6.73-3.74,12.95,2.04,37.09-6.69,8.62-31.95,16.27-37.98,3.31-7.07-18.35,6.35-24.36-.82-41.63-.87-2.22-.65-5.38,1.5-9.13-5.8-3.41-23.24,28.61-14.51,49.57,8.73,20.96,24.13,30.88,43.46,29.25,19.32-1.63,38.54-22.68,40.53-35.07,1.99-12.4-3.72-31.57-15.76-36.54-4.04-1.67-6.88-3.57-18.45,3.16h0Z"/><path class="cls-112" d="M543.8,504.11c3.38.11,6.76-2.79,9.11-4.95,11.16-12.38,10.79-23.4,6.34-40.02-1.77-4.74-8.04-11.9-8.95-12.24-.23-.09,4.04,6.61,3.91,6.9,7.13,26.14-.91,36.47-15.16,46.51-5.53,5.31,3.29,3.45,4.75,3.8h0Z"/><path class="cls-116" d="M490.35,444.19c14.2-14.57,36.59-15.79,50.01-2.71,13.42,13.08,12.79,35.5-1.41,50.07-14.2,14.57-36.59,15.79-50.01,2.71-13.42-13.08-12.79-35.5,1.41-50.07Z"/><g class="cls-69"><path class="cls-7" d="M478.97,472.38c0-24.69,20.02-44.71,44.71-44.71s44.71,20.02,44.71,44.71-20.02,44.71-44.71,44.71-44.71-20.02-44.71-44.71Z"/></g><path class="cls-60" d="M532.7,514.51c4.72-.1,11.58-3.97,14.03-6.08,8.11-6.96,19.66-16.23,18.05-36.64-1.17-14.85-7.91-28.4-19.56-35.93-4.77-3.08-8.96-4.1-16.03-6.18,10.61,3.86,12.86,3.67,14.8,9.13,6.72,18.97,4.93,25.78,4.64,35.07-.49,15.42-3.96,20.47-19.74,36.62l3.8,4Z"/><path class="cls-80" d="M546.45,505.66c3.21-1.29,5.13-3.47,7.48-5.62,11.16-12.38,10.59-26.54,4.08-43.78-1.77-4.74-8.04-11.9-8.95-12.24-.23-.09,4.04,6.61,3.91,6.9,8.34,27.19.62,40.95-12.82,51.49-13.44,10.54,3.09,4.55,6.31,3.26h0Z"/><path class="cls-39" d="M532.22,515.25c11.92-1.78,18.64-7.56,24.34-14.91"/><path class="cls-92" d="M558.78,473.54c-2.05,12.73-7.82,21.53-14.4,28.66,6.52.99,21.45-12.11,14.4-28.66Z"/><path class="cls-84" d="M547.48,511.52c11.78-6.93,20.11-19.1,21.77-33.31,1.07-8.52-.99-7.71-2.53-1.96-2.51,9.57-8.14,17.82-15.76,23.76-3.21,2.51-5.36,4.04-10.63,7.4-5.27,3.36.17,8.07,7.15,4.11h0Z"/><path class="cls-32" d="M560.15,455.62c-2.7-5.1-11.45-20.86-31.22-23.9,16.82,5.36,22.36,18.67,25.76,26.99l5.46-3.09Z"/><path class="cls-25" d="M524.74,509.13c1.46,0,2.92-.08,4.38-.25,1.83-.22,3.63-.57,5.41-1.05-.38.06-.77.11-1.15.16-20.95,2.47-40.86-13.3-42.73-35.23-1.62-19.07,22.52-35.32,40.58-31.78.85.17-10.84-6.46-10.01-6.69-20.36,3.05-35.24,17.84-33.41,39.36,1.73,20.39,17.84,35.45,36.93,35.48h0Z"/><path class="cls-15" d="M529.65,452.14c1.35-3.01,4.63-5.97,10.34-5.97s10.34,2.67,10.34,5.97-.73,21.7-5.57,24.73c-10.02,6.27-19.34-15.28-15.11-24.73Z"/><path class="cls-101" d="M547.13,452.03l9.47.62c8.81,12.21,11.1,30.16-6.9,38.73l-5.56-2.8c3.79-11.68,3.46-20.34,2.99-36.55h0Z"/><path class="cls-20" d="M498.27,509.36c-.16-1.75,4.48-.8,10.5-1.36,1.34-.13,6.9,2.75,8.41,3.04,10.57,2.01,17.88,1.15,17.26,3.13-.63,2.02-10.87,4.73-20.07,2.64-6.88-1.56-15.88-4.96-16.1-7.44h0Z"/><path class="cls-74" d="M496.42,505.09c.23,0,.46,0,.69-.03-1.92-3.43-3.21-5.27-4.2-9.17-5.83-7.69-9.28-17.28-9.28-27.67,0-6.26,1.25-12.23,3.53-17.67-.81-.81-1.53-1.71-2.12-2.7-4.58,7.14-7.23,15.63-7.23,24.73s2.63,17.53,7.18,24.65c2.38,4.05,6.75,7.84,11.43,7.84h0Z"/><path class="cls-40" d="M557.32,478.79c3.07-11.65.43-20.11-4.08-28.25"/><g class="cls-118"><g class="cls-61"><path class="cls-26" d="M542.36,463.7c-2.29-1.87.37-10.13,1.19-12.81,1.72-5.62,7.35-3.51,13.6,2.83,1.73,1.75,6.38,12.19-2.63,11.78-2.79-.13-9.87.07-12.16-1.8Z"/></g></g><path class="cls-63" d="M547.13,452.03l9.47.62c8.81,12.21,11.1,30.16-6.9,38.73l-5.56-2.8c3.79-11.68,3.46-20.34,2.99-36.55h0Z"/><path class="cls-109" d="M44.39,475.59c0-26.14,21.19-47.33,47.33-47.33s47.33,21.19,47.33,47.33-21.19,47.33-47.33,47.33-47.33-21.19-47.33-47.33Z"/><path class="cls-114" d="M47.01,474.37c0-24.69,20.02-44.71,44.71-44.71s44.71,20.02,44.71,44.71-20.02,44.71-44.71,44.71-44.71-20.02-44.71-44.71Z"/><path class="cls-16" d="M100.3,450.62c-11.58,6.73-3.74,12.95,2.04,37.09-6.69,8.62-31.95,16.27-37.98,3.31-7.07-18.35,6.35-24.36-.82-41.63-.87-2.22-.65-5.38,1.5-9.13-5.8-3.41-23.24,28.61-14.51,49.57,8.73,20.96,24.13,30.88,43.46,29.25,19.32-1.63,38.54-22.68,40.53-35.07,1.99-12.4-3.72-31.57-15.76-36.54-4.04-1.67-6.88-3.57-18.45,3.16h0Z"/><path class="cls-112" d="M111.84,507.11c3.38.11,6.76-2.79,9.11-4.95,11.16-12.38,10.79-23.4,6.34-40.02-1.77-4.74-8.04-11.9-8.95-12.24-.23-.09,4.04,6.61,3.91,6.9,7.13,26.14-.91,36.47-15.16,46.51-5.53,5.31,3.29,3.45,4.75,3.8h0Z"/><path class="cls-3" d="M58.39,447.19c14.2-14.57,36.59-15.79,50.01-2.71,13.42,13.08,12.79,35.5-1.41,50.07-14.2,14.57-36.59,15.79-50.01,2.71-13.42-13.08-12.79-35.5,1.41-50.07Z"/><g class="cls-77"><path class="cls-22" d="M47.01,475.38c0-24.69,20.02-44.71,44.71-44.71s44.71,20.02,44.71,44.71-20.02,44.71-44.71,44.71-44.71-20.02-44.71-44.71Z"/></g><path class="cls-94" d="M100.74,517.51c4.72-.1,11.58-3.97,14.03-6.08,8.11-6.96,19.66-16.23,18.05-36.64-1.17-14.85-7.91-28.4-19.56-35.93-4.77-3.08-8.96-4.1-16.03-6.18,10.61,3.86,12.86,3.67,14.8,9.13,6.72,18.97,4.93,25.78,4.64,35.07-.49,15.42-3.96,20.47-19.74,36.62l3.8,4Z"/><path class="cls-2" d="M114.49,508.66c3.21-1.29,5.13-3.47,7.48-5.62,11.16-12.38,10.59-26.54,4.08-43.78-1.77-4.74-8.04-11.9-8.95-12.24-.23-.09,4.04,6.61,3.91,6.9,8.34,27.19.62,40.95-12.82,51.49-13.44,10.54,3.09,4.55,6.31,3.26h0Z"/><path class="cls-41" d="M100.26,518.25c11.92-1.78,18.64-7.56,24.34-14.91"/><path class="cls-92" d="M126.82,476.54c-2.05,12.73-7.82,21.53-14.4,28.66,6.52.99,21.45-12.11,14.4-28.66Z"/><path class="cls-98" d="M115.52,514.52c11.78-6.93,20.11-19.1,21.77-33.31,1.07-8.52-.99-7.71-2.53-1.96-2.51,9.57-8.14,17.82-15.76,23.76-3.21,2.51-5.36,4.04-10.63,7.4-5.27,3.36.17,8.07,7.15,4.11h0Z"/><path class="cls-8" d="M128.19,458.62c-2.7-5.1-11.45-20.86-31.22-23.9,16.82,5.36,22.36,18.67,25.76,26.99l5.46-3.09Z"/><path class="cls-14" d="M92.78,512.13c1.46,0,2.92-.08,4.38-.25,1.83-.22,3.63-.57,5.41-1.05-.38.06-.77.11-1.15.16-20.95,2.47-40.86-13.3-42.73-35.23-1.62-19.07,22.52-35.32,40.58-31.78.85.17-10.84-6.46-10.01-6.69-20.36,3.05-35.24,17.84-33.41,39.36,1.73,20.39,17.84,35.45,36.93,35.48h0Z"/><path class="cls-17" d="M97.69,455.14c1.35-3.01,4.63-5.97,10.34-5.97s10.34,2.67,10.34,5.97-.73,21.7-5.57,24.73c-10.02,6.27-19.34-15.28-15.11-24.73Z"/><path class="cls-106" d="M115.17,455.03l9.47.62c8.81,12.21,11.1,30.16-6.9,38.73l-5.56-2.8c3.79-11.68,3.46-20.34,2.99-36.55h0Z"/><path class="cls-20" d="M66.3,512.36c-.16-1.75,4.48-.8,10.5-1.36,1.34-.13,6.9,2.75,8.41,3.04,10.57,2.01,17.88,1.15,17.26,3.13-.63,2.02-10.87,4.73-20.07,2.64-6.88-1.56-15.88-4.96-16.1-7.44h0Z"/><path class="cls-1" d="M64.46,508.09c.23,0,.46,0,.69-.03-1.92-3.43-3.21-5.27-4.2-9.17-5.83-7.69-9.28-17.28-9.28-27.67,0-6.26,1.25-12.23,3.53-17.67-.81-.81-1.53-1.71-2.12-2.7-4.58,7.14-7.23,15.63-7.23,24.73s2.63,17.53,7.18,24.65c2.38,4.05,6.75,7.84,11.43,7.84h0Z"/><path class="cls-37" d="M125.36,481.79c3.07-11.65.43-20.11-4.08-28.25"/><g class="cls-81"><g class="cls-120"><path class="cls-33" d="M110.39,466.7c-2.29-1.87.37-10.13,1.19-12.81,1.72-5.62,7.35-3.51,13.6,2.83,1.73,1.75,6.38,12.19-2.63,11.78-2.79-.13-9.87.07-12.16-1.8Z"/></g></g><path class="cls-86" d="M115.17,455.03l9.47.62c8.81,12.21,11.1,30.16-6.9,38.73l-5.56-2.8c3.79-11.68,3.46-20.34,2.99-36.55h0Z"/><path class="cls-87" d="M155.05,48.33c0,26.14-21.19,47.33-47.33,47.33s-47.33-21.19-47.33-47.33S81.58,1,107.72,1s47.33,21.19,47.33,47.33Z"/><path class="cls-103" d="M152.43,49.56c0,24.69-20.02,44.71-44.71,44.71s-44.71-20.02-44.71-44.71S83.03,4.85,107.72,4.85s44.71,20.02,44.71,44.71Z"/><path class="cls-30" d="M99.14,73.3c11.58-6.73,3.74-12.95-2.04-37.09,6.69-8.62,31.95-16.27,37.98-3.31,7.07,18.35-6.35,24.36.82,41.63.87,2.22.65,5.38-1.5,9.13,5.8,3.41,23.24-28.61,14.51-49.57-8.73-20.96-24.13-30.88-43.46-29.25-19.32,1.63-38.54,22.68-40.53,35.07-1.99,12.4,3.72,31.57,15.76,36.54,4.04,1.67,6.88,3.57,18.45-3.16h0Z"/><path class="cls-112" d="M87.6,16.81c-3.38-.11-6.76,2.79-9.11,4.95-11.16,12.38-10.79,23.4-6.34,40.02,1.77,4.74,8.04,11.9,8.95,12.24.23.09-4.04-6.61-3.91-6.9-7.13-26.14.91-36.47,15.16-46.51,5.53-5.31-3.29-3.45-4.75-3.8h0Z"/><path class="cls-62" d="M141.05,76.73c-14.2,14.57-36.59,15.79-50.01,2.71s-12.79-35.5,1.41-50.07c14.2-14.57,36.59-15.79,50.01-2.71,13.42,13.08,12.79,35.5-1.41,50.07Z"/><g class="cls-110"><path class="cls-27" d="M152.43,48.55c0,24.69-20.02,44.71-44.71,44.71s-44.71-20.02-44.71-44.71S83.03,3.84,107.72,3.84s44.71,20.02,44.71,44.71Z"/></g><path class="cls-72" d="M98.7,6.41c-4.72.1-11.58,3.97-14.03,6.08-8.11,6.96-19.66,16.23-18.05,36.64,1.17,14.85,7.91,28.4,19.56,35.93,4.77,3.08,8.96,4.1,16.03,6.18-10.61-3.86-12.86-3.67-14.8-9.13-6.72-18.97-4.93-25.78-4.64-35.07.49-15.42,3.96-20.47,19.74-36.62l-3.8-4Z"/><path class="cls-64" d="M84.95,15.26c-3.21,1.29-5.13,3.47-7.48,5.62-11.16,12.38-10.59,26.54-4.08,43.78,1.77,4.74,8.04,11.9,8.95,12.24.23.09-4.04-6.61-3.91-6.9-8.34-27.19-.62-40.95,12.82-51.49,13.44-10.54-3.09-4.55-6.31-3.26h0Z"/><path class="cls-45" d="M99.18,5.67c-11.92,1.78-18.64,7.56-24.34,14.91"/><path class="cls-92" d="M72.62,47.39c2.05-12.73,7.82-21.53,14.4-28.66-6.52-.99-21.45,12.11-14.4,28.66Z"/><path class="cls-97" d="M83.92,9.4c-11.78,6.93-20.11,19.1-21.77,33.31-1.07,8.52.99,7.71,2.53,1.96,2.51-9.57,8.14-17.82,15.76-23.76,3.21-2.51,5.36-4.04,10.63-7.4,5.27-3.36-.17-8.07-7.15-4.11h0Z"/><path class="cls-6" d="M71.25,65.3c2.7,5.1,11.45,20.86,31.22,23.9-16.82-5.36-22.36-18.67-25.76-26.99l-5.46,3.09Z"/><path class="cls-29" d="M106.66,11.79c-1.46,0-2.92.08-4.38.25-1.83.22-3.63.57-5.41,1.05.38-.06.77-.11,1.15-.16,20.95-2.47,40.86,13.3,42.73,35.23,1.62,19.07-22.52,35.32-40.58,31.78-.85-.17,10.84,6.46,10.01,6.69,20.36-3.05,35.24-17.84,33.41-39.36-1.73-20.39-17.84-35.45-36.93-35.48h0Z"/><path class="cls-18" d="M101.75,68.78c-1.35,3.01-4.63,5.97-10.34,5.97s-10.34-2.67-10.34-5.97.73-21.7,5.57-24.73c10.02-6.27,19.34,15.28,15.11,24.73Z"/><path class="cls-88" d="M84.27,68.9l-9.47-.62c-8.81-12.21-11.1-30.16,6.9-38.73l5.56,2.8c-3.79,11.68-3.46,20.34-2.99,36.55h0Z"/><path class="cls-20" d="M133.13,11.57c.16,1.75-4.48.8-10.5,1.36-1.34.13-6.9-2.75-8.41-3.04-10.57-2.01-17.88-1.15-17.26-3.13.63-2.02,10.87-4.73,20.07-2.64,6.88,1.56,15.88,4.96,16.1,7.44h0Z"/><path class="cls-104" d="M134.98,15.83c-.23,0-.46,0-.69.03,1.92,3.43,3.21,5.27,4.2,9.17,5.83,7.69,9.28,17.28,9.28,27.67,0,6.26-1.25,12.23-3.53,17.67.81.81,1.53,1.71,2.12,2.7,4.58-7.14,7.23-15.63,7.23-24.73s-2.63-17.53-7.18-24.65c-2.38-4.05-6.75-7.84-11.43-7.84h0Z"/><path class="cls-38" d="M74.08,42.13c-3.07,11.65-.43,20.11,4.08,28.25"/><g class="cls-108"><g class="cls-36"><path class="cls-24" d="M89.04,57.22c2.29,1.87-.37,10.13-1.19,12.81-1.72,5.62-7.35,3.51-13.6-2.83-1.73-1.75-6.38-12.19,2.63-11.78,2.79.13,9.87-.07,12.16,1.8Z"/></g></g><path class="cls-105" d="M84.27,68.9l-9.47-.62c-8.81-12.21-11.1-30.16,6.9-38.73l5.56,2.8c-3.79,11.68-3.46,20.34-2.99,36.55h0Z"/><path class="cls-71" d="M558.01,47.33c0,26.14-21.19,47.33-47.33,47.33s-47.33-21.19-47.33-47.33S484.54,0,510.68,0s47.33,21.19,47.33,47.33Z"/><path class="cls-115" d="M555.39,48.56c0,24.69-20.02,44.71-44.71,44.71s-44.71-20.02-44.71-44.71S485.99,3.85,510.68,3.85s44.71,20.02,44.71,44.71Z"/><path class="cls-5" d="M502.1,72.3c11.58-6.73,3.74-12.95-2.04-37.09,6.69-8.62,31.95-16.27,37.98-3.31,7.07,18.35-6.35,24.36.82,41.63.87,2.22.65,5.38-1.5,9.13,5.8,3.41,23.24-28.61,14.51-49.57-8.73-20.96-24.13-30.88-43.46-29.25-19.32,1.63-38.54,22.68-40.53,35.07-1.99,12.4,3.72,31.57,15.76,36.54,4.04,1.67,6.88,3.57,18.45-3.16h0Z"/><path class="cls-112" d="M490.56,15.81c-3.38-.11-6.76,2.79-9.11,4.95-11.16,12.38-10.79,23.4-6.34,40.02,1.77,4.74,8.04,11.9,8.95,12.24.23.09-4.04-6.61-3.91-6.9-7.13-26.14.91-36.47,15.16-46.51,5.53-5.31-3.29-3.45-4.75-3.8h0Z"/><path class="cls-67" d="M544.01,75.73c-14.2,14.57-36.59,15.79-50.01,2.71-13.42-13.08-12.79-35.5,1.41-50.07,14.2-14.57,36.59-15.79,50.01-2.71,13.42,13.08,12.79,35.5-1.41,50.07Z"/><g class="cls-65"><path class="cls-9" d="M555.39,47.55c0,24.69-20.02,44.71-44.71,44.71s-44.71-20.02-44.71-44.71S485.99,2.84,510.68,2.84s44.71,20.02,44.71,44.71Z"/></g><path class="cls-85" d="M501.66,5.41c-4.72.1-11.58,3.97-14.03,6.08-8.11,6.96-19.66,16.23-18.05,36.64,1.17,14.85,7.91,28.4,19.56,35.93,4.77,3.08,8.96,4.1,16.03,6.18-10.61-3.86-12.86-3.67-14.8-9.13-6.72-18.97-4.93-25.78-4.64-35.07.49-15.42,3.96-20.47,19.74-36.62l-3.8-4Z"/><path class="cls-70" d="M487.91,14.26c-3.21,1.29-5.13,3.47-7.48,5.62-11.16,12.38-10.59,26.54-4.08,43.78,1.77,4.74,8.04,11.9,8.95,12.24.23.09-4.04-6.61-3.91-6.9-8.34-27.19-.62-40.95,12.82-51.49,13.44-10.54-3.09-4.55-6.31-3.26h0Z"/><path class="cls-43" d="M502.14,4.67c-11.92,1.78-18.64,7.56-24.34,14.91"/><path class="cls-92" d="M475.58,46.39c2.05-12.73,7.82-21.53,14.4-28.66-6.52-.99-21.45,12.11-14.4,28.66Z"/><path class="cls-113" d="M486.88,8.4c-11.78,6.93-20.11,19.1-21.77,33.31-1.07,8.52.99,7.71,2.53,1.96,2.51-9.57,8.14-17.82,15.76-23.76,3.21-2.51,5.36-4.04,10.63-7.4,5.27-3.36-.17-8.07-7.15-4.11h0Z"/><path class="cls-31" d="M474.21,64.3c2.7,5.1,11.45,20.86,31.22,23.9-16.82-5.36-22.36-18.67-25.76-26.99l-5.46,3.09Z"/><path class="cls-4" d="M509.62,10.79c-1.46,0-2.92.08-4.38.25-1.83.22-3.63.57-5.41,1.05.38-.06.77-.11,1.15-.16,20.95-2.47,40.86,13.3,42.73,35.23,1.62,19.07-22.52,35.32-40.58,31.78-.85-.17,10.84,6.46,10.01,6.69,20.36-3.05,35.24-17.84,33.41-39.36-1.73-20.39-17.84-35.45-36.93-35.48h0Z"/><path class="cls-10" d="M504.71,67.78c-1.35,3.01-4.63,5.97-10.34,5.97s-10.34-2.67-10.34-5.97.73-21.7,5.57-24.73c10.02-6.27,19.34,15.28,15.11,24.73Z"/><path class="cls-107" d="M487.23,67.9l-9.47-.62c-8.81-12.21-11.1-30.16,6.9-38.73l5.56,2.8c-3.79,11.68-3.46,20.34-2.99,36.55h0Z"/><path class="cls-20" d="M536.1,10.57c.16,1.75-4.48.8-10.5,1.36-1.34.13-6.9-2.75-8.41-3.04-10.57-2.01-17.88-1.15-17.26-3.13.63-2.02,10.87-4.73,20.07-2.64,6.88,1.56,15.88,4.96,16.1,7.44h0Z"/><path class="cls-82" d="M537.94,14.83c-.23,0-.46,0-.69.03,1.92,3.43,3.21,5.27,4.2,9.17,5.83,7.69,9.28,17.28,9.28,27.67,0,6.26-1.25,12.23-3.53,17.67.81.81,1.53,1.71,2.12,2.7,4.58-7.14,7.23-15.63,7.23-24.73s-2.63-17.53-7.18-24.65c-2.38-4.05-6.75-7.84-11.43-7.84h0Z"/><path class="cls-44" d="M477.04,41.13c-3.07,11.65-.43,20.11,4.08,28.25"/><g class="cls-91"><g class="cls-68"><path class="cls-23" d="M492.01,56.22c2.29,1.87-.37,10.13-1.19,12.81-1.72,5.62-7.35,3.51-13.6-2.83-1.73-1.75-6.38-12.19,2.63-11.78,2.79.13,9.87-.07,12.16,1.8Z"/></g></g><path class="cls-111" d="M487.23,67.9l-9.47-.62c-8.81-12.21-11.1-30.16,6.9-38.73l5.56,2.8c-3.79,11.68-3.46,20.34-2.99,36.55h0Z"/><path class="cls-96" d="M455.68,251.46c0,82.83-67.15,149.98-149.98,149.98s-149.98-67.15-149.98-149.98,67.15-149.98,149.98-149.98,149.98,67.15,149.98,149.98Z"/><path class="cls-102" d="M447.38,255.35c0,78.24-63.43,141.67-141.67,141.67s-141.67-63.43-141.67-141.67,63.43-141.67,141.67-141.67,141.67,63.43,141.67,141.67Z"/><path class="cls-28" d="M278.51,330.6c36.68-21.31,11.84-41.04-6.45-117.53,21.2-27.31,101.23-51.56,120.34-10.5,22.41,58.15-20.12,77.2,2.6,131.9,2.74,7.04,2.07,17.05-4.77,28.93,18.38,10.79,73.66-90.64,45.98-157.06-27.68-66.41-76.48-97.85-137.7-92.67-61.23,5.18-122.12,71.86-128.43,111.14-6.31,39.28,11.79,100.02,49.94,115.8,12.82,5.3,21.79,11.3,58.47-10.01h0Z"/><path class="cls-73" d="M241.95,151.59c-10.72-.35-21.43,8.85-28.87,15.67-35.36,39.23-34.19,74.16-20.08,126.82,5.62,15.02,25.48,37.71,28.37,38.8.72.27-12.82-20.94-12.38-21.87-22.6-82.84,2.89-115.58,48.02-147.39,17.51-16.82-10.44-10.93-15.07-12.03h0Z"/><path class="cls-79" d="M411.31,341.46c-45,46.18-115.95,50.03-158.48,8.58-42.53-41.44-40.53-112.48,4.47-158.66,45-46.18,115.95-50.03,158.48-8.58,42.53,41.44,40.53,112.48-4.47,158.66Z"/><g class="cls-76"><path class="cls-21" d="M447.38,252.15c0,78.24-63.43,141.67-141.67,141.67s-141.67-63.43-141.67-141.67,63.43-141.67,141.67-141.67,141.67,63.43,141.67,141.67Z"/></g><path class="cls-99" d="M277.11,118.64c-14.97.3-36.69,12.58-44.47,19.25-25.71,22.07-62.31,51.44-57.21,116.09,3.72,47.05,25.08,89.99,61.97,113.84,15.11,9.76,28.4,12.98,50.79,19.59-33.63-12.22-40.74-11.63-46.88-28.94-21.31-60.1-15.63-81.7-14.7-111.13,1.55-48.85,12.54-64.85,62.55-116.04l-12.05-12.66Z"/><path class="cls-89" d="M233.54,146.67c-10.18,4.08-16.26,11-23.69,17.82-35.36,39.23-33.56,84.1-12.93,138.73,5.62,15.02,25.48,37.71,28.37,38.8.72.27-12.82-20.94-12.38-21.87-26.44-86.17-1.95-129.75,40.62-163.15,42.57-33.39-9.8-14.41-19.98-10.33h0Z"/><path class="cls-46" d="M278.63,116.28c-37.77,5.65-59.08,23.95-77.13,47.25"/><path class="cls-119" d="M194.48,248.47c6.51-40.33,24.78-68.22,45.62-90.82-20.65-3.15-67.96,38.37-45.62,90.82Z"/><path class="cls-35" d="M230.28,128.1c-37.33,21.96-63.71,60.53-68.98,105.56-3.39,26.99,3.13,24.43,8.01,6.22,7.94-30.32,25.79-56.45,49.94-75.3,10.18-7.94,16.98-12.79,33.67-23.44,16.7-10.65-.54-25.58-22.65-13.03h0Z"/><path class="cls-11" d="M190.14,305.24c8.54,16.15,36.27,66.12,98.92,75.73-53.3-16.97-70.86-59.17-81.63-85.53l-17.29,9.8Z"/><path class="cls-12" d="M302.34,135.67c-4.63,0-9.27.26-13.87.81-5.78.68-11.52,1.79-17.15,3.33,1.21-.18,2.43-.35,3.66-.49,66.39-7.83,129.49,42.14,135.4,111.62,5.14,60.43-71.35,111.93-128.58,100.71-2.68-.53,34.36,20.47,31.71,21.19,64.52-9.66,111.66-56.53,105.86-124.74-5.49-64.6-56.53-112.34-117.03-112.43h0Z"/><path class="cls-13" d="M286.78,316.27c-4.27,9.54-14.67,18.92-32.76,18.92s-32.76-8.47-32.76-18.92,2.3-68.77,17.64-78.37c31.77-19.88,61.29,48.43,47.89,78.37Z"/><path class="cls-90" d="M231.4,316.63l-30.02-1.96c-27.91-38.69-35.18-95.56,21.87-122.74l17.62,8.87c-12,37.01-10.97,64.44-9.47,115.83h0Z"/><path class="cls-20" d="M386.23,134.96c.51,5.55-14.18,2.54-33.28,4.33-4.26.4-21.86-8.71-26.66-9.62-33.49-6.37-56.65-3.64-54.7-9.92,1.98-6.39,34.45-14.99,63.6-8.37,21.79,4.95,50.31,15.73,51.03,23.58h0Z"/><path class="cls-100" d="M392.08,148.49c-.73,0-1.46.03-2.19.09,6.08,10.86,10.16,16.7,13.31,29.05,18.46,24.37,29.42,54.75,29.42,87.68,0,19.84-3.98,38.76-11.17,55.99,2.58,2.56,4.84,5.43,6.71,8.54,14.51-22.62,22.92-49.51,22.92-78.38s-8.35-55.56-22.75-78.12c-7.56-12.82-21.39-24.85-36.23-24.86h0Z"/><path class="cls-47" d="M199.09,231.82c-9.74,36.93-1.35,63.73,12.92,89.53"/><g class="cls-50"><g class="cls-78"><path class="cls-34" d="M246.53,279.64c7.25,5.93-1.17,32.1-3.77,40.58-5.47,17.81-23.31,11.12-43.1-8.97-5.47-5.56-20.2-38.64,8.34-37.31,8.85.41,31.27-.23,38.53,5.71Z"/></g></g><path class="cls-49" d="M231.4,316.63l-30.02-1.96c-27.91-38.69-35.18-95.56,21.87-122.74l17.62,8.87c-12,37.01-10.97,64.44-9.47,115.83h0Z"/><path class="cls-52" d="M308.06,403.92c-88.88,0-173.27-15.07-231.52-41.34l4.52-10.03c56.88,25.65,139.62,40.37,227,40.37s172.81-15.18,229.79-41.65l4.63,9.98c-58.38,27.12-143.83,42.67-234.43,42.67Z"/><path class="cls-51" d="M472.9,255.69c-1.06,0-2.12-.3-3.07-.94-2.52-1.7-3.19-5.11-1.49-7.63,28.96-43.04,48.62-84.12,56.85-118.82,8.13-34.27,4.52-60.04-10.42-74.53-2.18-2.11-2.23-5.6-.12-7.78,2.11-2.18,5.6-2.24,7.78-.12,17.88,17.34,22.54,46.72,13.47,84.97-8.53,35.96-28.73,78.3-58.42,122.42-1.06,1.58-2.8,2.43-4.57,2.43Z"/><path class="cls-58" d="M93.71,487.97h0c.54.49.81.74.81.74,3.03,2.82,6.4,5.28,9.97,7.31,3.59,2.02,7.36,3.62,11.22,4.85,3.85,1.22,7.78,2.12,11.71,2.68,3.93.55,7.87.83,11.79.91,13.23.11,26.13-2.05,38.57-5.32,12.45-3.28,24.48-7.68,36.18-12.72,23.4-10.1,45.46-22.75,66.59-36.65,21.12-13.93,41.23-29.28,60.52-45.55,19.27-16.3,37.67-33.59,55.24-51.69h.01c29.5-30.5,56.73-63.26,80.57-98.48l.56-.82h0l-1.08-.72-.54-.36-.54-.36-.54-.36-.54-.36-.54-.36-.54-.36-.54-.36-.54-.36-.54-.36-.54-.36-.54-.36-.54-.36-.54-.36-.54-.36-.22-.15-.22-.15-.55.8c-23.41,34.6-50.26,66.91-79.36,96.97h-.01c-17.33,17.86-35.48,34.91-54.45,50.97-18.99,16.03-38.78,31.12-59.48,44.78-20.7,13.63-42.28,25.98-64.89,35.73-11.3,4.87-22.86,9.09-34.64,12.19-11.76,3.1-23.8,5.07-35.64,4.96-3.5-.07-6.97-.32-10.37-.8-3.41-.48-6.74-1.25-9.95-2.27-3.21-1.02-6.29-2.33-9.17-3.95-2.87-1.63-5.53-3.58-7.92-5.81,0,0-.18-.19-.61-.58-6.53-4.77-11.84,2.6-7.63,7.83Z"/><path class="cls-59" d="M476.3,503.37c-22.25,0-49.26-6.9-79.81-20.68-56.47-25.45-119.02-71.46-176.12-129.54-57.1-58.08-102.03-121.41-126.51-178.31-25.18-58.52-25.77-103.8-1.66-127.5,2.17-2.13,5.65-2.1,7.78.07,2.13,2.17,2.1,5.65-.07,7.78-20.35,20-18.87,62.03,4.06,115.31,23.96,55.68,68.09,117.81,124.25,174.95,56.17,57.14,117.53,102.32,172.8,127.23,52.88,23.83,94.88,26.03,115.22,6.03,2.16-2.13,5.65-2.1,7.78.07,2.13,2.17,2.1,5.65-.07,7.78-11.42,11.23-27.6,16.83-47.64,16.83Z"/></g><g id="Layer_2"><g class="cls-83"><path class="cls-117" d="M245.22,266.56l-2.04,10.54h-52.85c.99-1.66,1.53-3.22,1.63-4.68.09-1.46.14-3.02.14-4.68v-37.99c0-2.13-.06-3.43-.19-3.9-.12-.47-.65-1.61-1.58-3.43h51.92l1.86,10.47c-1.86-.3-3.28-.52-4.27-.67-3.28-.49-5.33-.74-6.13-.74h-18.67v12.81h18.86c1.11,0,2.18-.09,3.21-.26s2.55-.58,4.6-1.22v11.95c-1.86-.31-3.28-.55-4.27-.7-3.1-.47-5.14-.7-6.13-.7h-16.26v14.68h23.31c.87,0,1.7-.09,2.51-.26.8-.17,2.26-.58,4.37-1.22Z"/><path class="cls-95" d="M313.49,261.59c0,5.56-1.27,9.54-3.81,11.93-2.54,2.39-7,3.59-13.38,3.59h-46.63c.99-1.66,1.53-3.22,1.63-4.68.09-1.46.14-3.02.14-4.68v-37.99c0-2.13-.06-3.43-.19-3.9-.12-.47-.65-1.61-1.58-3.43h46.63c6.32,0,10.76,1.18,13.33,3.55,2.57,2.37,3.86,6.36,3.86,11.97v23.63ZM290.54,263.61v-28.76c0-1.3-.25-2.18-.74-2.65-.5-.47-1.67-.7-3.53-.7h-11.89v36.55h11.89c1.86,0,3.03-.22,3.53-.66.5-.44.74-1.7.74-3.78Z"/><path class="cls-48" d="M396.06,277.11h-30.19c.37-.31.62-.6.74-.86.5-.78.74-1.72.74-2.81,0-1.2-.34-2.55-1.02-4.06l-3.25-6.95h-26.36l-4.06,7.52c-.54.99-.8,2.02-.8,3.11,0,1.19.25,2.31.74,3.35.06.16.22.39.46.7h-16.91c1.18-1.51,2.38-3.05,3.62-4.61,1.11-1.61,2.17-3.38,3.16-5.31l21.92-41.71-2.69-3.05h27.22l21.27,47.19c.74,1.56,1.53,2.93,2.37,4.09.84,1.17,1.84,2.3,3.02,3.39ZM359.19,253.36l-8.57-18.5-9.22,18.51h17.8Z"/></g></g><g id="i"><text class="cls-66" transform="translate(391.05 276.13) scale(1.48 1)"><tspan x="0" y="0">i</tspan></text></g></svg>