<?xml version="1.0" encoding="UTF-8"?>
<svg version="1.1" xmlns="http://www.w3.org/2000/svg" width="1600" height="1000">
<path d="M0 0 C0.73959961 0.05140137 1.47919922 0.10280273 2.24121094 0.15576172 C16.61521065 1.30759529 31.89493211 6.14867559 44 14 C45.3921875 14.8971875 45.3921875 14.8971875 46.8125 15.8125 C53.0566129 22.0566129 56.09081391 28.10895211 56.375 36.875 C56.08257627 60.7208259 36.78183164 82.79163237 21 99 C18.43841776 101.47619617 15.76095287 103.74932225 13 106 C12.4834082 106.42893555 11.96681641 106.85787109 11.43457031 107.29980469 C-6.61718465 122.27029434 -26.08362771 133.76311127 -47.09912109 144.05908203 C-48.914819 144.95783617 -50.71756684 145.88261204 -52.51953125 146.80859375 C-65.24418603 153.33815946 -78.34663093 158.73009391 -92 163 C-93.31408085 163.42622484 -94.62786477 163.85336583 -95.94140625 164.28125 C-117.65924481 171.29891892 -117.65924481 171.29891892 -127 170 C-127.99 169.34 -128.98 168.68 -130 168 C-131.97953851 156.61765359 -122.66812776 144.35166848 -117.3125 134.8125 C-116.59683313 133.52838016 -115.88142212 132.24411769 -115.16625977 130.9597168 C-100.78459409 105.18713003 -100.78459409 105.18713003 -93.625 95.29296875 C-91.9241115 92.89291696 -90.36575416 90.43540153 -88.8125 87.9375 C-84.31860899 80.80369992 -79.40083065 73.97419914 -74.50341797 67.11474609 C-73.08645948 65.12161611 -71.68334677 63.11960477 -70.28515625 61.11328125 C-56.35275202 41.19018145 -56.35275202 41.19018145 -49 39 C-45.125 39.3125 -45.125 39.3125 -42 40 C-41.47721621 47.40733084 -42.78357541 51.7386216 -46.4375 58.125 C-46.89125 58.95193359 -47.345 59.77886719 -47.8125 60.63085938 C-50.93540798 66.27210123 -54.23957788 71.80062624 -57.60107422 77.30200195 C-64.3154217 88.36257217 -70.19221935 99.92057469 -75.5625 111.6875 C-76.06438843 112.76414917 -76.06438843 112.76414917 -76.57641602 113.86254883 C-78.68937226 118.61628324 -79.57492258 122.81172623 -80 128 C-71.48048511 130.21501727 -63.1401109 125.41620687 -55.5625 121.75 C-54.73484131 121.35232422 -53.90718262 120.95464844 -53.05444336 120.54492188 C-39.13170792 113.74655669 -27.07294794 104.46018205 -15.15625 94.62890625 C-13 93 -13 93 -10.84375 92.02734375 C-8.47718556 90.70868602 -8.16108943 89.41453824 -7 87 C-5.53796343 85.52390538 -4.03191109 84.09094386 -2.5 82.6875 C1.71768451 78.5555159 5.15609906 74.28057197 8.4375 69.375 C8.85 68.76615967 9.2625 68.15731934 9.6875 67.5300293 C13.99958852 60.90268368 16.4283602 54.82542352 16.375 46.8125 C16.38273438 45.64332031 16.39046875 44.47414063 16.3984375 43.26953125 C15.86259215 38.87244735 14.44270188 36.34757868 11.22265625 33.33984375 C-2.69944935 24.30180413 -22.32535237 23.95875969 -38.4375 23.4375 C-40.33858521 23.37163696 -40.33858521 23.37163696 -42.27807617 23.30444336 C-51.8151074 23.00070868 -61.33844519 22.93104973 -70.87866211 23.12475586 C-77.46487917 23.20540796 -85.511454 23.17129496 -91 19 C-91.75 16.375 -91.75 16.375 -92 14 C-71.05994578 -4.75465957 -25.63044582 -1.79175394 0 0 Z " fill="#EE2621" transform="translate(152,491)"/>
<path d="M0 0 C1.29566895 0.00418945 2.59133789 0.00837891 3.92626953 0.01269531 C48.67915546 0.52880024 48.67915546 0.52880024 62.33984375 11.84765625 C63.625 13.3125 63.625 13.3125 64.625 16.3125 C61.29795698 20.47130378 57.67656234 21.3997456 52.625 22.3125 C50.03733427 22.50718332 47.44236992 22.61914839 44.84765625 22.65625 C44.12705017 22.67005707 43.40644409 22.68386414 42.66400146 22.6980896 C41.12987441 22.72748366 39.59567553 22.75331791 38.06143188 22.77581787 C34.03513786 22.83803239 30.00983296 22.93710354 25.984375 23.0390625 C24.7840136 23.06941086 24.7840136 23.06941086 23.55940247 23.10037231 C16.50588951 23.2915748 9.4739595 23.65452516 2.4375 24.1875 C1.46111572 24.25388672 0.48473145 24.32027344 -0.52124023 24.38867188 C-8.30337724 25.03027147 -17.58583879 26.52333879 -23.375 32.3125 C-24.82613725 42.10308424 -21.69921402 49.41706536 -15.95996094 57.24169922 C-10.16443618 64.79690332 -3.90525472 71.95633741 2.52734375 78.97265625 C5.53616273 82.32886215 8.34883047 85.83332921 11.1796875 89.33984375 C13.41574368 92.05811652 15.70598739 94.71279297 18.02368164 97.36083984 C44.44737034 127.65396606 44.44737034 127.65396606 43.87109375 145.28125 C42.90586535 153.24821459 38.35682978 160.93897997 32.46875 166.26171875 C18.02512316 177.07099143 -1.13514255 180.45137704 -18.84375 180.48046875 C-20.02816681 180.48675293 -20.02816681 180.48675293 -21.23651123 180.49316406 C-23.78272553 180.50289649 -26.32877024 180.50295934 -28.875 180.5 C-29.7460437 180.49972809 -30.6170874 180.49945618 -31.51452637 180.49917603 C-45.54707047 180.47902452 -59.43556397 180.052612 -73.375 178.3125 C-74.67219971 178.15177002 -74.67219971 178.15177002 -75.99560547 177.98779297 C-102.52468582 174.55743758 -102.52468582 174.55743758 -109.375 168.3125 C-109.85647656 165.5612054 -109.88280332 164.07762176 -108.32275391 161.72705078 C-105.39188624 159.59851641 -102.28210636 159.4981598 -98.7734375 159.1796875 C-97.98762299 159.10072235 -97.20180847 159.0217572 -96.3921814 158.94039917 C-86.41509168 158.01763824 -76.39914932 157.81622727 -66.38809204 157.53619385 C-42.9698688 156.87432407 -42.9698688 156.87432407 -19.6875 154.4375 C-18.62934082 154.28812988 -17.57118164 154.13875977 -16.48095703 153.98486328 C-10.42237376 152.99848837 -4.6907894 151.48408583 0.625 148.3125 C2.52929124 144.50391751 2.2059714 140.45334518 1.625 136.3125 C-2.80367219 124.69991299 -11.88249997 114.75670281 -20.19140625 105.7421875 C-23.06841535 102.54093587 -25.69981128 99.17110613 -28.359375 95.7890625 C-30.36256192 93.32778245 -32.46452422 91.01117719 -34.625 88.6875 C-48.46270337 73.48517882 -64.86175414 53.89797819 -64.578125 32.53125 C-64.0586249 24.29917152 -59.27002645 18.68458056 -53.375 13.3125 C-37.71292132 1.92393136 -18.85035218 -0.08467591 0 0 Z " fill="#EE2621" transform="translate(288.375,445.6875)"/>
<path d="M0 0 C10.0411795 -0.09325535 20.08225361 -0.16404387 30.12378025 -0.20724869 C34.7879996 -0.22799951 39.45191964 -0.2560843 44.1159668 -0.30175781 C48.62882812 -0.34566719 53.14140412 -0.36923075 57.65446281 -0.37950897 C59.36421123 -0.38682039 61.07394651 -0.40109413 62.78357124 -0.42292023 C78.94377415 -0.62076235 95.88153788 1.20387886 108.3125 12.6875 C112.29455892 16.95857932 114.85452221 21.59460896 117 27 C117.38841064 27.96172119 117.38841064 27.96172119 117.78466797 28.94287109 C120.01644742 34.92924442 120.54200412 40.38883091 120.5 46.75 C120.49572998 47.74427002 120.49145996 48.73854004 120.48706055 49.76293945 C119.95844332 73.36392407 111.19325259 96.53717971 94 113 C71.8913718 130.9203477 46.1581688 130.31447967 19.08764648 130.1373291 C15.57408072 130.11657889 12.06048485 130.10767411 8.546875 130.09765625 C1.69784446 130.07644119 -5.15106905 130.04247354 -12 130 C-13.15277749 126.02838091 -12.69483665 123.21436231 -11.92578125 119.12890625 C-11.8020816 118.45924332 -11.67838196 117.78958038 -11.55093384 117.09962463 C-11.14609518 114.9190071 -10.72942011 112.7408369 -10.3125 110.5625 C-10.02931048 109.05010187 -9.74684387 107.5375682 -9.46508789 106.02490234 C-8.77483887 102.33026342 -8.07521809 98.63748974 -7.37097168 94.94549561 C-6.87225294 92.33005305 -6.37770033 89.71382602 -5.8828125 87.09765625 C-5.41640903 84.63863037 -4.94810877 82.18003475 -4.47436523 79.72241211 C-3.52750333 74.80924541 -2.61113322 69.8914171 -1.71484375 64.96875 C-1.49256104 63.75171387 -1.27027832 62.53467773 -1.04125977 61.28076172 C-0.60786116 58.9027072 -0.17721144 56.52414949 0.25024414 54.14501953 C3.01886067 38.98113933 3.01886067 38.98113933 6 36 C9.05592291 34.95544502 11.92058217 34.87126763 15.1328125 34.8671875 C16.10347656 34.86589844 17.07414063 34.86460937 18.07421875 34.86328125 C19.08097656 34.86714844 20.08773437 34.87101563 21.125 34.875 C22.13949219 34.87113281 23.15398438 34.86726562 24.19921875 34.86328125 C25.16730469 34.86457031 26.13539063 34.86585938 27.1328125 34.8671875 C28.01855957 34.86831543 28.90430664 34.86944336 29.81689453 34.87060547 C32 35 32 35 34 36 C34.2088911 40.17782202 33.60145547 43.62559928 32.55712891 47.65332031 C31.50179508 52.09848626 30.84534167 56.61571974 30.125 61.125 C28.36578029 71.91293547 26.4601231 82.66799458 24.47558594 93.41650391 C23.64234467 97.94286896 22.82159535 102.47150892 22 107 C26.2325115 106.95539057 30.46364305 106.88509598 34.6953125 106.79248047 C36.13041729 106.76451136 37.56566924 106.74317897 39.00097656 106.72900391 C50.94830383 106.60403186 61.28780881 105.02215303 70.484375 96.6484375 C79.72935942 86.97456205 85.45593671 70.23887336 86 57 C86.07734375 55.28296875 86.07734375 55.28296875 86.15625 53.53125 C86.3770204 44.33248318 85.66946632 36.09257133 81 28 C78.7193293 26.78702351 78.7193293 26.78702351 76 26 C75.07598389 25.66500488 74.15196777 25.33000977 73.19995117 24.98486328 C59.94667317 20.90584265 43.85012056 22.9629152 30.13598633 23.17138672 C27.1674463 23.21392759 24.19923134 23.23719838 21.23046875 23.2578125 C20.33651901 23.27643341 19.44256927 23.29505432 18.52153015 23.3142395 C12.6096494 23.33812223 7.39569688 22.53226618 2 20 C-0.96400964 16.77712489 -1.96897057 12.81945309 -2.04296875 8.48046875 C-1.74836852 5.38966298 -1.39397545 2.78795089 0 0 Z " fill="#EE2621" transform="translate(841,493)"/>
<path d="M0 0 C10.90583765 7.85490007 17.45543913 19.222735 20.2734375 32.328125 C22.99793445 51.53359531 19.18636792 71.74006845 9.75 88.6875 C9.20730469 89.67878906 8.66460938 90.67007813 8.10546875 91.69140625 C5.25179659 96.68359672 5.25179659 96.68359672 3.75 98.6875 C3.09 98.6875 2.43 98.6875 1.75 98.6875 C1.523125 99.22375 1.29625 99.76 1.0625 100.3125 C-6.00512953 113.10154391 -21.73345767 120.66405736 -35.25 124.6875 C-53.28111743 129.42971068 -75.04490832 128.37812773 -91.50390625 119.39453125 C-102.01392349 112.86127729 -108.75968128 103.70164647 -112.4140625 91.94140625 C-117.66036155 68.38209137 -112.57493889 45.09987258 -100.25 24.6875 C-96.70910003 19.56867233 -92.8195927 14.92273226 -88.25 10.6875 C-87.7240625 10.15640625 -87.198125 9.6253125 -86.65625 9.078125 C-76.39098657 -0.75216964 -63.75787724 -4.424609 -50.25 -7.3125 C-49.60893311 -7.4868457 -48.96786621 -7.66119141 -48.30737305 -7.84082031 C-32.83867058 -11.38722273 -13.55444785 -8.05141589 0 0 Z M-70.9375 28.4375 C-81.8544521 41.68671005 -85.08808064 61.38296987 -84.03125 78.16015625 C-83.04258313 86.44024132 -80.8623172 92.17024378 -74.875 98 C-64.78315538 104.4876144 -54.20546087 104.38394553 -42.58984375 102.484375 C-32.52453856 100.0828285 -25.21035118 94.83390444 -19.73046875 86.15625 C-19.24191406 85.3415625 -18.75335937 84.526875 -18.25 83.6875 C-17.79238281 82.9346875 -17.33476563 82.181875 -16.86328125 81.40625 C-9.33010835 67.8329655 -7.01525491 47.09411116 -10.52734375 31.8828125 C-12.50526319 25.87421399 -16.30873813 22.31781484 -21.25 18.6875 C-37.76566408 10.42966796 -58.82114138 15.59467877 -70.9375 28.4375 Z " fill="#EE2621" transform="translate(633.25,501.3125)"/>
<path d="M0 0 C1.57800618 0.00306153 3.15601507 0.00493465 4.73402405 0.00567627 C8.02469381 0.01025823 11.31511597 0.02461045 14.60571289 0.046875 C18.83160101 0.07531907 23.05729604 0.08610506 27.28327084 0.0905571 C30.53365519 0.094702 33.7840003 0.10450899 37.0343647 0.11643219 C38.59375253 0.12214027 40.15314413 0.1268972 41.71253777 0.13069916 C43.88126234 0.13753718 46.04983074 0.1511533 48.21850586 0.16699219 C49.45346298 0.17382019 50.6884201 0.18064819 51.96080017 0.18768311 C54.72265625 0.328125 54.72265625 0.328125 55.72265625 1.328125 C56.37863041 10.73883124 56.58003976 17.89213397 50.22265625 25.203125 C46.5886506 28.2920298 43.85414884 28.46088804 39.24145508 28.53344727 C38.12051956 28.55339249 36.99958405 28.57333771 35.84468079 28.59388733 C34.635233 28.61059982 33.42578522 28.62731232 32.1796875 28.64453125 C30.94095383 28.66531235 29.70222015 28.68609344 28.4259491 28.70750427 C25.13640369 28.76184297 21.84682899 28.81208451 18.55718994 28.86035156 C15.19887811 28.91063146 11.84065579 28.96628361 8.48242188 29.02148438 C1.89590466 29.12865548 -4.69067959 29.23042635 -11.27734375 29.328125 C-11.83082015 31.40366148 -12.27734375 33.17178464 -12.27734375 35.328125 C-11.70024658 35.60342041 -11.12314941 35.87871582 -10.52856445 36.16235352 C-8.31505151 37.30859843 -6.31525463 38.57526139 -4.2578125 39.98046875 C-3.49009521 40.50431152 -2.72237793 41.0281543 -1.93139648 41.56787109 C-1.11743408 42.12812988 -0.30347168 42.68838867 0.53515625 43.265625 C1.37812256 43.84393066 2.22108887 44.42223633 3.08959961 45.01806641 C9.01510183 49.10265219 14.86099063 53.28253857 20.63427734 57.5793457 C24.08107323 60.14344858 27.57772883 62.57935851 31.16015625 64.953125 C38.98357246 70.4555944 44.28051968 76.19166805 46.328125 85.703125 C47.81678237 95.60785522 46.22146607 105.84207248 40.72265625 114.328125 C38.34765625 117.015625 38.34765625 117.015625 35.72265625 119.328125 C34.85640625 120.153125 33.99015625 120.978125 33.09765625 121.828125 C22.50948907 130.47376022 10.70118957 130.48121166 -2.26953125 130.4609375 C-3.62476621 130.4616119 -4.98000105 130.46258305 -6.3352356 130.46383667 C-9.16100223 130.46530424 -11.98673708 130.46318746 -14.8125 130.45849609 C-18.44091217 130.45276643 -22.06925089 130.45610404 -25.69766045 130.46206856 C-28.48909058 130.46567171 -31.2805031 130.4645373 -34.07193375 130.46194077 C-36.06235044 130.46094732 -38.05276782 130.46398928 -40.04318237 130.46707153 C-41.84107712 130.46234329 -41.84107712 130.46234329 -43.67529297 130.45751953 C-44.73561737 130.45672394 -45.79594177 130.45592834 -46.88839722 130.45510864 C-49.27734375 130.328125 -49.27734375 130.328125 -50.27734375 129.328125 C-50.55663815 126.08661721 -50.50917555 122.83023198 -50.52734375 119.578125 C-50.54796875 118.670625 -50.56859375 117.763125 -50.58984375 116.828125 C-50.61884377 111.86912146 -50.61725646 108.29232046 -47.27734375 104.328125 C-43.95366203 102.11233719 -42.86121213 102.0671212 -38.9831543 102.02514648 C-37.36083138 102.00018349 -37.36083138 102.00018349 -35.70573425 101.97471619 C-34.53698257 101.96630203 -33.3682309 101.95788788 -32.1640625 101.94921875 C-30.96175491 101.93222427 -29.75944733 101.9152298 -28.52070618 101.89772034 C-24.66880581 101.84450034 -20.8169157 101.80427776 -16.96484375 101.765625 C-13.12354072 101.72163236 -9.28231945 101.67482095 -5.44111633 101.62281799 C-3.04940409 101.59099059 -0.65762046 101.56406081 1.73420715 101.54258728 C2.82521225 101.52909744 3.91621735 101.5156076 5.0402832 101.50170898 C5.99498001 101.49219711 6.94967682 101.48268524 7.93330383 101.47288513 C10.92297293 101.31772909 13.78093065 100.87218122 16.72265625 100.328125 C16.83586481 95.24508814 16.83586481 95.24508814 15.72265625 90.328125 C14.06026959 89.65085636 12.39241708 88.9870036 10.72265625 88.328125 C8.21776734 86.69628509 5.85343031 84.88473712 3.47265625 83.078125 C2.13000281 82.07535302 0.78625831 81.07404016 -0.55859375 80.07421875 C-1.20183594 79.59581543 -1.84507812 79.11741211 -2.5078125 78.62451172 C-5.30605572 76.57447426 -8.19876558 74.68208757 -11.1015625 72.78515625 C-14.69051953 70.38177928 -18.16533735 67.82577338 -21.640625 65.26171875 C-23.24597198 64.0844643 -24.8652594 62.92554178 -26.5078125 61.80078125 C-34.41323055 56.28075046 -40.54618155 49.00408518 -42.27734375 39.328125 C-43.41293385 28.85230634 -41.16307502 20.97537309 -34.96484375 12.515625 C-25.32355481 0.88453813 -14.36088652 -0.12187252 0 0 Z " fill="#EE2621" transform="translate(457.27734375,492.671875)"/>
<path d="M0 0 C0.83999039 -0.00570007 1.67998077 -0.01140015 2.54542542 -0.01727295 C4.31957764 -0.0266794 6.09374699 -0.03323951 7.86791992 -0.03710938 C10.52750916 -0.04673423 13.18629737 -0.07776539 15.84570312 -0.109375 C35.99892561 -0.2330735 58.14321005 2.39032031 73.6953125 16.5625 C78.86018489 22.47325314 80.50798291 29.56268298 80.40625 37.2265625 C77.94889086 63.59990984 54.4244214 84.60214385 35.15234375 100.6875 C31.86942625 103.28329523 28.53210655 105.76835676 25.12890625 108.203125 C24.40799805 108.72100586 23.68708984 109.23888672 22.94433594 109.77246094 C12.42661075 117.24523707 1.54792716 123.8413925 -9.87109375 129.828125 C-10.96760254 130.40788086 -12.06411133 130.98763672 -13.19384766 131.58496094 C-32.8238352 141.62628388 -32.8238352 141.62628388 -40.87109375 139.203125 C-41.87109375 138.203125 -41.87109375 138.203125 -41.93359375 135.140625 C-40.35209383 125.453938 -26.48374514 117.87111606 -19.16796875 112.453125 C-17.81889835 111.45327619 -16.46994285 110.45327234 -15.12109375 109.453125 C-14.44353027 108.95167969 -13.7659668 108.45023437 -13.06787109 107.93359375 C-7.5633716 103.81856693 -2.33805828 99.4365646 2.78808594 94.86035156 C6.92672043 91.203125 6.92672043 91.203125 9.12890625 91.203125 C9.12890625 90.543125 9.12890625 89.883125 9.12890625 89.203125 C10.59765625 87.7578125 10.59765625 87.7578125 12.62890625 86.078125 C25.62587085 74.97702694 40.06688232 60.721435 43.12890625 43.203125 C43.06637747 39.32634046 42.81471935 37.2032691 40.62890625 34.015625 C24.30194513 22.17857819 0.40070109 22.39817001 -18.8828125 21.96875 C-19.66457352 21.9505571 -20.44633453 21.9323642 -21.25178528 21.91362 C-25.16055287 21.82565485 -29.06819784 21.75707824 -32.9777832 21.7199707 C-34.43180867 21.69513175 -35.88582915 21.66999819 -37.33984375 21.64453125 C-38.62310547 21.63107666 -39.90636719 21.61762207 -41.22851562 21.60375977 C-45.46430357 21.13787987 -48.12031196 20.19565369 -51.87109375 18.203125 C-52.80859375 15.515625 -52.80859375 15.515625 -52.87109375 13.203125 C-43.51921602 4.17372581 -28.14622416 3.21330111 -15.87109375 1.203125 C-14.79819092 1.02515381 -13.72528809 0.84718262 -12.61987305 0.66381836 C-8.3880091 0.14375797 -4.25864641 0.0229496 0 0 Z " fill="#EE2621" transform="translate(185.87109375,338.796875)"/>
<path d="M0 0 C4.0417471 0.04505132 6.57220621 0.56873649 9.75 3.25 C10.67172374 6.01517121 10.87375838 7.63443871 10.87025452 10.483078 C10.87162918 11.34544571 10.87300385 12.20781342 10.87442017 13.09631348 C10.87082489 14.03930298 10.86722961 14.98229248 10.86352539 15.95385742 C10.86367142 16.9491597 10.86381744 17.94446198 10.8639679 18.96992493 C10.86327032 22.26512825 10.85548511 25.56027529 10.84765625 28.85546875 C10.84579152 31.13804595 10.84436788 33.42062355 10.84336853 35.70320129 C10.83954767 41.71525169 10.82972104 47.72727798 10.81866455 53.73931885 C10.80844118 59.87243321 10.80386892 66.00555145 10.79882812 72.13867188 C10.78809841 84.17579185 10.77102714 96.21289392 10.75 108.25 C12.35162619 105.53869397 13.95125096 102.82621226 15.55053711 100.11352539 C16.00074974 99.3514402 16.45096237 98.58935501 16.91481781 97.80417633 C19.8220888 92.87012498 22.61965269 87.89106255 25.33251953 82.84716797 C28.01029479 77.94083432 30.85877924 73.13283933 33.6875 68.3125 C34.56051758 66.82073242 34.56051758 66.82073242 35.45117188 65.29882812 C36.62162572 63.29881673 37.79801407 61.30226589 38.98046875 59.30932617 C40.20997998 57.18363561 41.39184168 55.02995658 42.53515625 52.85668945 C43.12039063 51.76702881 43.705625 50.67736816 44.30859375 49.5546875 C44.82349365 48.56065918 45.33839355 47.56663086 45.86889648 46.54248047 C47.75 44.25 47.75 44.25 50.83959961 43.43579102 C56.26941967 43.21524415 60.39930931 43.84415628 64.75 47.25 C67.01846594 51.25393576 68.36788368 55.04760346 69.3984375 59.51953125 C69.67937256 60.72722168 69.96030762 61.93491211 70.24975586 63.17919922 C70.68300171 65.10143311 70.68300171 65.10143311 71.125 67.0625 C71.43016385 68.39345067 71.73558672 69.72434197 72.04125977 71.05517578 C74.85764394 83.40297162 77.37071762 95.81094476 79.75 108.25 C85.03522408 100.32216388 88.48795275 91.32792529 92.125 82.5625 C97.93227095 68.69674918 97.93227095 68.69674918 101.125 62 C104.70833965 54.47758965 108.00709407 46.83482591 111.3125 39.1875 C111.58640564 38.55396606 111.86031128 37.92043213 112.14251709 37.2677002 C117.09634604 25.80298667 122.04028906 14.3331299 126.890625 2.82421875 C127.75 1.25 127.75 1.25 129.75 0.25 C133.77965216 -0.13015586 136.13115359 -0.07231584 139.75 1.8125 C141.75 4.25 141.75 4.25 141.8125 7.4375 C141.00935892 10.31935918 140.18006681 12.67443587 138.953125 15.359375 C136.71448567 20.31610947 134.5714431 25.30996235 132.4375 30.3125 C127.88804362 40.94981274 123.33769505 51.58720983 118.53515625 62.11328125 C114.94797569 69.98863218 111.44806576 77.9027952 107.9375 85.8125 C107.25720573 87.3444207 106.57686739 88.87632183 105.89648438 90.40820312 C105.55980743 91.16668549 105.22313049 91.92516785 104.87625122 92.70663452 C104.19668566 94.23599734 103.51592283 95.76482873 102.83395386 97.29312134 C101.06996598 101.25080331 99.33131828 105.21699459 97.63134766 109.20263672 C97.28252029 110.01119614 96.93369293 110.81975555 96.57429504 111.65281677 C95.9137972 113.18515562 95.26094154 114.72082192 94.61747742 116.26039124 C92.34306188 121.50438759 89.70686859 126.56187754 84.57421875 129.4921875 C79.22568177 131.07621491 73.02099244 132.88549622 67.75 130.25 C67.05151367 128.14648438 67.05151367 128.14648438 66.41796875 125.34375 C66.17925049 124.3019458 65.94053223 123.2601416 65.69458008 122.18676758 C65.44474365 121.05263428 65.19490723 119.91850098 64.9375 118.75 C64.67541748 117.58686279 64.41333496 116.42372559 64.14331055 115.2253418 C61.68065457 104.18397496 59.44857142 93.09862322 57.28613281 81.99511719 C56.5169033 78.05649397 55.72784927 74.12192891 54.9375 70.1875 C54.54166667 68.20833333 54.14583333 66.22916667 53.75 64.25 C49.56045263 71.10191622 45.62024579 78.05480143 41.8125 85.125 C38.06780582 92.03797087 34.27726396 98.89891132 30.2578125 105.65625 C28.67512145 108.37880663 27.21313018 111.14912625 25.75 113.9375 C18.16542706 127.76583747 18.16542706 127.76583747 11.4375 130.3125 C6.32913529 131.62031158 -0.39507827 132.67746087 -5.25 130.25 C-5.27332875 113.44776179 -5.29097906 96.64552861 -5.30181217 79.84327793 C-5.30697518 72.04224164 -5.31401797 64.24121539 -5.32543945 56.44018555 C-5.33538615 49.64323687 -5.34185339 42.84629546 -5.34408849 36.04933971 C-5.34539563 32.44821869 -5.34848164 28.84711848 -5.35573006 25.2460041 C-5.36374364 21.23243398 -5.36399115 17.21890036 -5.36352539 13.20532227 C-5.36712067 12.00267227 -5.37071594 10.80002228 -5.37442017 9.56092834 C-5.3730455 8.47412781 -5.37167084 7.38732727 -5.37025452 6.26759338 C-5.37117631 5.31722482 -5.3720981 4.36685625 -5.37304783 3.38768864 C-5.15447314 -0.40957166 -3.37598791 0.06707261 0 0 Z " fill="#EE2621" transform="translate(987.25,492.75)"/>
<path d="M0 0 C3.10624016 -0.30536181 6.00849618 -0.4196636 9.1171875 -0.3984375 C10.04355011 -0.40130768 10.96991272 -0.40417786 11.92434692 -0.40713501 C13.89992885 -0.40918224 15.87553074 -0.40360658 17.85107422 -0.39111328 C20.80095227 -0.37539457 23.74938999 -0.39076584 26.69921875 -0.41015625 C65.46264595 -0.45198501 65.46264595 -0.45198501 76.51953125 9.19921875 C81.21486111 14.02764458 84.54733969 18.18494758 85 25 C85.10054687 26.26457031 85.10054687 26.26457031 85.203125 27.5546875 C85.65117622 38.85197899 82.28957928 47.75061871 76 57 C75.401875 57.9075 74.80375 58.815 74.1875 59.75 C70.8781834 63.1538685 67.01918034 65.50865876 63 68 C61.3603125 69.0828125 61.3603125 69.0828125 59.6875 70.1875 C54.88006332 72.91019518 49.34998195 73.840398 44 75 C45.28601725 79.32280055 46.93465364 82.77841861 49.375 86.5625 C53.15313 92.52787402 56.69379935 98.6141815 60.1875 104.75 C60.68620605 105.62470947 61.18491211 106.49941895 61.69873047 107.40063477 C62.66599428 109.10162395 63.62987332 110.80454306 64.59008789 112.50952148 C65.54319487 114.19309625 66.50890967 115.86958593 67.48608398 117.53930664 C68.1774646 118.73608032 68.1774646 118.73608032 68.8828125 119.95703125 C69.29805176 120.66577393 69.71329102 121.3745166 70.14111328 122.10473633 C71 124 71 124 70.6875 126.9375 C68.34162137 129.80468499 66.62813129 130.31544693 63 131 C59.65625 131.1328125 59.65625 131.1328125 56 130 C53.5302643 127.12436141 51.90903814 123.86182201 50.1875 120.5 C49.14836266 118.5748579 48.10797993 116.65038754 47.06640625 114.7265625 C46.55352051 113.76137695 46.04063477 112.79619141 45.51220703 111.80175781 C43.32937252 107.75748773 40.98514646 103.81748137 38.625 99.875 C29.13455927 83.83639818 29.13455927 83.83639818 26 76 C17.42 76 8.84 76 0 76 C-0.33 79.96 -0.66 83.92 -1 88 C-1.46541552 91.20498406 -1.95662238 94.37709545 -2.5234375 97.5625 C-2.67027985 98.40167969 -2.81712219 99.24085938 -2.96841431 100.10546875 C-3.27650767 101.85353933 -3.58750364 103.60110076 -3.90136719 105.34814453 C-4.37865828 108.02048258 -4.83801292 110.6955373 -5.296875 113.37109375 C-5.6004787 115.08092196 -5.90512816 116.7905649 -6.2109375 118.5 C-6.41268082 119.6921814 -6.41268082 119.6921814 -6.61849976 120.90844727 C-7.96664271 128.22435515 -7.96664271 128.22435515 -11 131 C-15.90601866 131.40213268 -20.15531544 130.85006591 -25 130 C-23.4143611 115.8712474 -20.66124957 101.95740046 -18 88 C-17.70523472 86.45263789 -17.41047584 84.90527457 -17.11572266 83.35791016 C-16.80242863 81.71386342 -16.48911433 80.06982054 -16.17578125 78.42578125 C-16.01558502 77.58513123 -15.85538879 76.7444812 -15.69033813 75.87835693 C-14.8512576 71.47661788 -14.01051375 67.07520667 -13.16699219 62.67431641 C-11.32935204 53.07267646 -9.52807563 43.46554499 -7.77734375 33.84765625 C-7.41323764 31.85610693 -7.04906209 29.86457031 -6.68481445 27.87304688 C-6.15652117 24.98372171 -5.63065595 22.09406741 -5.11264038 19.20288086 C-4.63582701 16.54166751 -4.1507351 13.88208134 -3.6640625 11.22265625 C-3.4551664 10.03507469 -3.4551664 10.03507469 -3.24205017 8.82350159 C-2.59090907 5.30535045 -2.01155526 3.0173329 0 0 Z M11 16 C10.01815532 21.12226879 9.03967714 26.2451654 8.06420898 31.36865234 C7.73243419 33.10873447 7.39976668 34.84864665 7.06616211 36.58837891 C6.58468211 39.10013555 6.10649778 41.61250146 5.62890625 44.125 C5.4069735 45.27705933 5.4069735 45.27705933 5.18055725 46.45239258 C4.26530113 51.28883531 3.56517141 56.1099332 3 61 C7.31924 61.05019229 11.63831645 61.08608563 15.95776367 61.10986328 C17.42100997 61.11979663 18.88423711 61.13334793 20.34741211 61.15087891 C35.08214397 61.32274199 49.28636426 61.26653917 61.09765625 51.21484375 C66.68819514 45.43439271 70 38.26917298 70 30.1875 C68.31016233 24.80114244 66.18510393 21.38000755 61.1875 18.6875 C54.83607235 15.58381267 47.69338571 15.8586992 40.78515625 15.90234375 C39.50154457 15.90446617 39.50154457 15.90446617 38.19200134 15.90663147 C35.48213069 15.9121901 32.77234532 15.92473475 30.0625 15.9375 C28.21549599 15.94252035 26.36849068 15.94708232 24.52148438 15.95117188 C20.01429049 15.96214595 15.50715966 15.9793817 11 16 Z " fill="#EE2621" transform="translate(1281,493)"/>
<path d="M0 0 C12.12789403 9.43733603 18.21251725 21.31258624 21.1875 36.1875 C23.27989951 60.04085441 15.76318279 83.8229525 1.125 102.625 C-9.33597844 114.79680285 -24.25463704 125.08464621 -40.5 126.75 C-44.3757078 126.97844765 -48.24304569 127.08029062 -52.125 127.125 C-53.07882568 127.13917969 -54.03265137 127.15335938 -55.01538086 127.16796875 C-68.52692178 127.07492207 -79.8819346 122.49829321 -89.91015625 113.4375 C-97.32584218 105.56630511 -101.22713487 96.16171449 -103.25 85.6875 C-103.37785889 85.0267749 -103.50571777 84.3660498 -103.63745117 83.68530273 C-107.19723315 63.46644255 -99.61288836 40.60245091 -88.6328125 23.71484375 C-85.26324334 19.03077234 -81.56986501 14.83389903 -77.5 10.75 C-76.81421875 10.04101562 -76.1284375 9.33203125 -75.421875 8.6015625 C-56.0462752 -10.12818397 -22.88984195 -14.9691192 0 0 Z M-70.7421875 24.26953125 C-82.532689 39.09698011 -89.67324833 58.06427901 -88.828125 77.23046875 C-87.4451733 87.84956219 -84.45568031 98.25377047 -75.75 105.1328125 C-64.45426383 112.73921548 -50.92545424 113.51167413 -37.80078125 111.05859375 C-21.69452201 106.50309557 -11.36260467 96.72873809 -3.1953125 82.47265625 C4.61403676 67.12073675 8.42130868 47.55902944 3.875 30.8125 C0.44291131 20.94069721 -5.25574193 14.89355955 -14.4375 10.0625 C-18.19221439 8.26244575 -21.30108575 7.00707638 -25.5 6.75 C-26.28761719 6.69972656 -27.07523438 6.64945312 -27.88671875 6.59765625 C-43.62410654 6.03640847 -60.17885796 12.39958778 -70.7421875 24.26953125 Z " fill="#EE2621" transform="translate(1228.5,501.25)"/>
<path d="M0 0 C4.45827926 -0.0578304 8.9164628 -0.09353855 13.375 -0.125 C15.28152344 -0.15013672 15.28152344 -0.15013672 17.2265625 -0.17578125 C19.04414062 -0.18544922 19.04414062 -0.18544922 20.8984375 -0.1953125 C22.01911621 -0.20578613 23.13979492 -0.21625977 24.29443359 -0.22705078 C27 0 27 0 29 2 C29.84042603 8.07002198 28.58986915 14.08144127 27.27734375 19.98828125 C26.9047681 21.75547153 26.53494256 23.52324326 26.16748047 25.29150391 C25.97450378 26.21916565 25.7815271 27.14682739 25.58270264 28.1026001 C24.57174195 33.1294478 23.69474336 38.17903812 22.81640625 43.23046875 C22.63193939 44.28646271 22.44747253 45.34245667 22.25741577 46.43045044 C21.50251287 50.76075776 20.75206995 55.09183031 20.00268555 59.4230957 C17.24506635 75.33447421 14.24382231 91.18036448 11 107 C11.69268982 106.99111755 12.38537964 106.98223511 13.09906006 106.9730835 C20.30130776 106.88466617 27.50340157 106.82428867 34.70605469 106.78027344 C37.39504466 106.762401 40.08365826 106.73455525 42.77246094 106.69824219 C46.63487561 106.64978385 50.49671208 106.62704374 54.359375 106.609375 C55.5636615 106.58872986 56.767948 106.56808472 58.00872803 106.54681396 C59.12958801 106.54651184 60.250448 106.54620972 61.40527344 106.54589844 C62.88420074 106.53257477 62.88420074 106.53257477 64.39300537 106.51898193 C67.73949348 107.13644436 68.92893621 108.35270883 71 111 C71.2421875 113.515625 71.2421875 113.515625 70.875 116.25 C70.76929688 117.14203125 70.66359375 118.0340625 70.5546875 118.953125 C69.87775548 122.671484 68.91665731 126.33337076 68 130 C37.97 130 7.94 130 -23 130 C-22.32710112 122.59811231 -21.51610144 115.46472951 -20.22265625 108.1796875 C-20.05124619 107.19557892 -19.87983612 106.21147034 -19.70323181 105.19754028 C-19.34307819 103.13506827 -18.98079555 101.07296698 -18.61645508 99.01123047 C-18.06282471 95.87683836 -17.51622181 92.74128176 -16.97070312 89.60546875 C-16.61759864 87.58846965 -16.26409652 85.57154011 -15.91015625 83.5546875 C-15.74862564 82.62945282 -15.58709503 81.70421814 -15.42066956 80.75094604 C-14.5462827 75.81667124 -13.57810303 70.92262453 -12.44664001 66.04057312 C-11.47881843 61.61886738 -10.84293744 57.13267646 -10.14453125 52.66210938 C-9.47406583 48.49152608 -8.61317603 44.460869 -7.54882812 40.36889648 C-6.26393763 34.82294786 -5.43599395 29.17562737 -4.5 23.5625 C-3.17810566 15.65917416 -1.83384084 7.80231359 0 0 Z " fill="#EE2621" transform="translate(683,493)"/>
<path d="M0 0 C3.64158426 -0.21421084 6.43298792 -0.20954794 9.875 1.0625 C12.92155046 3.84023718 12.69467335 5.92965544 13 10 C12.79190097 12.88026585 12.32443692 15.6894405 11.8203125 18.53125 C11.68809296 19.32599731 11.55587341 20.12074463 11.41964722 20.9395752 C10.9979346 23.46149277 10.5618645 25.9806676 10.125 28.5 C9.83885993 30.19124009 9.55369464 31.88264541 9.26953125 33.57421875 C8.86777841 35.9651896 8.46473402 38.35583848 8.05374146 40.74523926 C7.29616746 45.15539555 6.61209711 49.56722044 6 54 C6.59425781 53.45472656 7.18851563 52.90945313 7.80078125 52.34765625 C25.05755396 36.64748201 25.05755396 36.64748201 30 35 C30.33 34.01 30.66 33.02 31 32 C32.93359375 30.2734375 32.93359375 30.2734375 35.4375 28.375 C39.06649745 25.55531022 42.54698159 22.66504168 45.9375 19.5625 C50.33909125 15.54908058 54.88404814 11.75539417 59.51953125 8.015625 C61.53126566 6.38089279 63.48885894 4.70812869 65.4375 3 C67.92879252 1.05557657 68.97738544 0.4606959 72 0 C79.01518438 1.01518438 79.01518438 1.01518438 81 3 C81.67987015 5.96670609 81.89211449 7.16435037 81 10 C78.04132567 13.4476078 74.54678642 16.17782586 71 19 C70.1234375 19.721875 69.246875 20.44375 68.34375 21.1875 C66.54223285 22.67110236 64.73472155 24.14745032 62.921875 25.6171875 C55.76422058 31.45431209 48.70759211 37.4096151 41.875 43.625 C36.74244513 48.28492866 31.39082076 52.64415726 26 57 C23.93515378 58.68465026 21.87395366 60.37369374 19.8125 62.0625 C18.20833333 63.375 16.60416667 64.6875 15 66 C17.1329051 69.89878432 19.55193001 72.73857869 22.75 75.8125 C25.69118542 78.69452364 28.57222729 81.5588778 31.25 84.6875 C34.67792382 88.69215981 38.26976092 92.53077367 41.875 96.375 C46.66730852 101.49003778 51.44094011 106.61628326 56.09375 111.859375 C57.32444967 113.2413902 58.57342526 114.60744201 59.84375 115.953125 C63.06797957 119.45110991 65.11391997 121.98752134 65 127 C63.54013118 129.35201088 62.33639158 129.87852526 59.75 130.8125 C55.56548239 131.09780802 51.72297211 130.4850301 48.453125 127.66674805 C46.93260611 125.97491394 45.52079351 124.23353536 44.125 122.4375 C43.08502598 121.16031604 42.04204158 119.88557758 40.99609375 118.61328125 C40.48933105 117.99275879 39.98256836 117.37223633 39.46044922 116.73291016 C36.84826648 113.63339944 33.93734219 110.85442906 31.03515625 108.03125 C28.38105759 105.38224558 25.93847307 102.57994664 23.5078125 99.7265625 C22.02203902 97.9695883 22.02203902 97.9695883 20.3046875 96.3984375 C19 95 19 95 19 93 C18.34 93 17.68 93 17 93 C15.34375 91.390625 15.34375 91.390625 13.5 89.25 C12.58734375 88.20585938 12.58734375 88.20585938 11.65625 87.140625 C10.12023037 85.15539208 9.0276034 83.28127955 8 81 C7.34 81 6.68 81 6 81 C4.29319053 79.37446717 2.62339805 77.70884005 1 76 C0.89977539 76.61705811 0.79955078 77.23411621 0.69628906 77.86987305 C-1.13119731 89.08032092 -2.9973579 100.27958343 -5.125 111.4375 C-5.28323242 112.26918701 -5.44146484 113.10087402 -5.60449219 113.95776367 C-6.64096538 119.32754222 -7.78630903 124.66757457 -9 130 C-10.56215548 130.16986545 -12.1247452 130.33573964 -13.6875 130.5 C-14.55761719 130.5928125 -15.42773438 130.685625 -16.32421875 130.78125 C-18.89723339 130.99159864 -21.41984364 131.03719144 -24 131 C-25.00318019 127.82711936 -24.95712577 125.57654448 -24.36328125 122.31640625 C-24.20005371 121.39867432 -24.03682617 120.48094238 -23.86865234 119.53540039 C-23.68512207 118.55434326 -23.5015918 117.57328613 -23.3125 116.5625 C-23.12896973 115.54857178 -22.94543945 114.53464355 -22.75634766 113.48999023 C-22.18015793 110.32487642 -21.59122374 107.16233674 -21 104 C-20.81711426 103.00871094 -20.63422852 102.01742187 -20.44580078 100.99609375 C-19.92681429 98.18401018 -19.40264411 95.37297114 -18.875 92.5625 C-18.71684814 91.71824463 -18.55869629 90.87398926 -18.39575195 90.00415039 C-17.71048041 86.41984639 -16.97325443 82.89710693 -16.0546875 79.36328125 C-14.57141463 73.58138327 -13.64444141 67.68281839 -12.62759399 61.80508423 C-12.24299195 59.58453818 -11.85384748 57.36482814 -11.46362305 55.14526367 C-10.21607187 48.03851314 -8.9845409 40.92927658 -7.78024292 33.81506348 C-7.255697 30.72291093 -6.72472042 27.63187933 -6.19299316 24.54095459 C-5.9414268 23.06759244 -5.69307951 21.59367667 -5.44812012 20.11920166 C-5.10479625 18.05330247 -4.75073968 15.98949216 -4.39453125 13.92578125 C-4.19706299 12.75442627 -3.99959473 11.58307129 -3.79614258 10.3762207 C-2.91199206 6.62678263 -1.60873568 3.49240475 0 0 Z " fill="#EE2621" transform="translate(1400,493)"/>
<path d="M0 0 C1.84393089 0.00068733 1.84393089 0.00068733 3.72511292 0.00138855 C6.30950899 0.00439802 8.89390347 0.01224498 11.47827148 0.0246582 C15.45243781 0.04301972 19.42618662 0.045167 23.40039062 0.04492188 C25.91276245 0.04983352 28.42513269 0.05566029 30.9375 0.0625 C32.13217392 0.06361282 33.32684784 0.06472565 34.557724 0.06587219 C36.20062157 0.07544197 36.20062157 0.07544197 37.87670898 0.08520508 C39.32943459 0.09092278 39.32943459 0.09092278 40.81150818 0.09675598 C43.00390625 0.23046875 43.00390625 0.23046875 44.00390625 1.23046875 C44.15557773 3.18469741 44.22570621 5.14556604 44.25390625 7.10546875 C44.2796875 8.17539062 44.30546875 9.2453125 44.33203125 10.34765625 C44.00390625 13.23046875 44.00390625 13.23046875 42.80181885 14.8875885 C40.39907618 16.68222283 38.8929494 16.60250573 35.90917969 16.59936523 C34.35176056 16.60969032 34.35176056 16.60969032 32.76287842 16.620224 C31.64101135 16.6140657 30.51914429 16.60790741 29.36328125 16.6015625 C26.98958193 16.61895015 24.61588404 16.63653448 22.2421875 16.65429688 C18.49850771 16.66435921 14.7549232 16.66796921 11.01123047 16.66625977 C7.39912517 16.66983611 3.78775544 16.69721101 0.17578125 16.7265625 C-0.93798889 16.71837997 -2.05175903 16.71019745 -3.19927979 16.70176697 C-9.68799407 16.76373155 -13.71992416 17.35529794 -18.99609375 21.23046875 C-21.3683929 24.1184851 -21.48470754 27.41887981 -21.3638916 31.10995483 C-19.9657518 39.17083633 -12.28647934 45.26030617 -6.71484375 50.62890625 C-4.88516289 52.42552283 -3.05574381 54.22240606 -1.2265625 56.01953125 C1.63927943 58.81712716 4.50876813 61.61078599 7.38427734 64.3984375 C10.17477726 67.11005572 12.94932983 69.83724167 15.72265625 72.56640625 C16.5779895 73.38652191 17.43332275 74.20663757 18.3145752 75.05160522 C25.74396025 82.3880625 30.59761138 89.79395713 31.0625 100.44140625 C30.85992592 110.08393228 28.60364582 117.01891901 22.00390625 124.23046875 C13.551245 131.68561097 2.42171558 131.53215078 -8.27734375 131.4609375 C-9.98029602 131.46025017 -9.98029602 131.46025017 -11.71765137 131.45954895 C-14.09758562 131.45654667 -16.47751826 131.44872176 -18.85742188 131.4362793 C-22.51309086 131.41788322 -26.16850804 131.41577087 -29.82421875 131.41601562 C-32.14192929 131.41110488 -34.45963811 131.40527851 -36.77734375 131.3984375 C-38.42095886 131.39676826 -38.42095886 131.39676826 -40.09777832 131.39506531 C-41.10642944 131.38868546 -42.11508057 131.3823056 -43.15429688 131.37573242 C-44.04346802 131.37192062 -44.93263916 131.36810883 -45.84875488 131.36418152 C-47.99609375 131.23046875 -47.99609375 131.23046875 -49.99609375 130.23046875 C-50.04996004 128.10574299 -50.08882446 125.98063223 -50.12109375 123.85546875 C-50.14429688 122.67210937 -50.1675 121.48875 -50.19140625 120.26953125 C-49.99609375 117.23046875 -49.99609375 117.23046875 -47.99609375 115.23046875 C-45.62719727 114.92749023 -45.62719727 114.92749023 -42.625 114.8515625 C-41.50544922 114.81812744 -40.38589844 114.78469238 -39.23242188 114.75024414 C-38.02005859 114.72309326 -36.80769531 114.69594238 -35.55859375 114.66796875 C-33.0182275 114.59250415 -30.47786296 114.51698173 -27.9375 114.44140625 C-25.29038499 114.37032963 -22.64324929 114.30001955 -19.99609375 114.23046875 C-14.99565549 114.09658988 -9.99588263 113.94905206 -4.99609375 113.79296875 C-3.85213135 113.76581787 -2.70816895 113.73866699 -1.52954102 113.71069336 C-0.46662842 113.6772583 0.59628418 113.64382324 1.69140625 113.609375 C3.08939453 113.57179077 3.08939453 113.57179077 4.515625 113.53344727 C7.1593926 113.21153639 8.7820687 112.687027 11.00390625 111.23046875 C13.83725116 106.44309286 14.29198951 103.0200368 13.71875 97.5390625 C11.78580105 91.29658801 6.86632845 86.80887587 2.33984375 82.3359375 C1.70656158 81.70311356 1.07327942 81.07028961 0.42080688 80.41828918 C-0.90979965 79.09068806 -2.24282 77.76550225 -3.578125 76.44262695 C-5.62692937 74.41218544 -7.66751221 72.37374843 -9.70703125 70.33398438 C-11.0034335 69.04249403 -12.30029247 67.75146194 -13.59765625 66.4609375 C-14.20912506 65.85058151 -14.82059387 65.24022552 -15.45059204 64.6113739 C-18.44319325 61.55079659 -18.44319325 61.55079659 -21.99609375 59.23046875 C-21.99609375 58.57046875 -21.99609375 57.91046875 -21.99609375 57.23046875 C-22.65609375 57.23046875 -23.31609375 57.23046875 -23.99609375 57.23046875 C-23.99609375 56.57046875 -23.99609375 55.91046875 -23.99609375 55.23046875 C-25.31609375 54.57046875 -26.63609375 53.91046875 -27.99609375 53.23046875 C-27.99609375 52.57046875 -27.99609375 51.91046875 -27.99609375 51.23046875 C-28.65609375 51.23046875 -29.31609375 51.23046875 -29.99609375 51.23046875 C-31.6875 48.96484375 -31.6875 48.96484375 -33.55859375 45.98046875 C-34.17863281 45.0059375 -34.79867188 44.03140625 -35.4375 43.02734375 C-39.02271953 36.59371673 -38.91317337 28.85919343 -37.5 21.7265625 C-35.29447589 14.56172428 -32.29994761 8.25012111 -25.68359375 4.35546875 C-17.42205967 -0.01199659 -9.12371111 -0.05553438 0 0 Z " fill="#EE2621" transform="translate(1533.99609375,492.76953125)"/>
<path d="M0 0 C4.45827926 -0.0578304 8.9164628 -0.09353855 13.375 -0.125 C15.28152344 -0.15013672 15.28152344 -0.15013672 17.2265625 -0.17578125 C19.04414062 -0.18544922 19.04414062 -0.18544922 20.8984375 -0.1953125 C22.01911621 -0.20578613 23.13979492 -0.21625977 24.29443359 -0.22705078 C27 0 27 0 29 2 C29.34213087 7.57013064 28.65276008 12.56268157 27.4375 18 C25.26542535 28.27008118 23.47086697 38.59475557 21.6875 48.9375 C19.07150837 64.06868599 16.31439587 79.16693279 13.42797852 94.2487793 C13.14335745 95.73615877 12.85877016 97.2235447 12.57421875 98.7109375 C12.43780472 99.42363297 12.30139069 100.13632843 12.1608429 100.87062073 C10.75755834 108.22649364 9.43010197 115.59616874 8.15356445 122.97509766 C7.10752762 128.89247238 7.10752762 128.89247238 6 130 C3.85441173 130.08775605 1.70595579 130.10695219 -0.44140625 130.09765625 C-1.74658203 130.09443359 -3.05175781 130.09121094 -4.39648438 130.08789062 C-5.7851569 130.07953401 -7.17382877 130.07106905 -8.5625 130.0625 C-9.95507656 130.05748666 -11.34765481 130.05292347 -12.74023438 130.04882812 C-16.1601987 130.03699434 -19.58007844 130.0205088 -23 130 C-22.45209852 122.02688053 -21.50247306 114.23458932 -20.109375 106.3671875 C-19.92442474 105.29938553 -19.73947449 104.23158356 -19.54891968 103.13142395 C-18.95480556 99.71162503 -18.35279 96.29327939 -17.75 92.875 C-17.33820239 90.51931796 -16.92658182 88.16360496 -16.51513672 85.80786133 C-13.58761987 69.10019469 -10.55200269 52.42113986 -7.140625 35.8046875 C-5.55785704 28.06850533 -4.21379679 20.332926 -3.08935547 12.51782227 C-2.9760791 11.75783936 -2.86280273 10.99785645 -2.74609375 10.21484375 C-2.64997803 9.54573975 -2.5538623 8.87663574 -2.45483398 8.18725586 C-1.86923337 5.37115501 -0.94539106 2.71367181 0 0 Z " fill="#EE2621" transform="translate(790,493)"/>
</svg>
